M48
;Layer_Color=9474304
;FILE_FORMAT=2:5
INCH,LZ
;TYPE=PLATED
T1F00S00C0.01200
T2F00S00C0.01800
T3F00S00C0.02500
T4F00S00C0.02800
T5F00S00C0.03150
T6F00S00C0.03346
T7F00S00C0.03543
T8F00S00C0.03937
T9F00S00C0.05118
T10F00S00C0.05906
;TYPE=NON_PLATED
T11F00S00C0.04331
T12F00S00C0.05906
%
T01
X0173228Y0015748
X0216535
X0244094
X025748
X0283465
X030315
Y0055118
Y0082677
Y0110236
Y0133858
Y0161417
X029762Y0157094
X027742Y0135694
X023912Y0135894
X022872Y0127194
X0216535Y0125984
X0206693
X019685
X0187008
Y0116142
X019685
Y0106299
X0187008
X017742Y0104194
X017222Y0106594
X017072Y0114294
X015872Y0126194
X015748Y0098425
X0173228Y0086614
X0188976Y0074803
X0206693Y0106299
Y0116142
X0226378
X023632Y0162094
X015042Y0138394
X013912Y0134294
X0133858Y0145669
X0122047Y0149606
X010882Y0145894
X010412Y0145794
X010002Y0138394
X009412Y0143994
X0086614Y0133858
X008492Y0156794
X004812Y0154994
X0051181Y0141732
X004992Y0123894
X0049213Y0114173
X0070866Y0090551
X008242Y0090294
X009172Y0107494
X009572Y0104694
X010132Y0104894
X010012Y0108994
X010772Y0114594
X010842Y0123794
X010922Y0128494
X011282Y0131194
X011811Y0129921
Y0125984
X0120079Y0120079
X012542Y0117594
X012292Y0114394
X0115157Y0117126
X0114173Y0098425
X013412Y0087494
X014282Y0083594
X014702Y0080994
X0153543Y0082677
X014802Y0093894
Y0114894
X012422Y0130294
X013982Y0068394
X0141732Y0055118
X0153543Y0059055
X0125984Y003937
X0122047Y0015748
X0145669
X0098425
X007874
X0055118
X0031496
X0007874
Y0027559
Y0043307
Y0062992
X006462Y0068494
X0066929Y007874
X0059055Y003937
X0082677
X0009843Y0155512
Y0165354
Y0175197
Y0185039
X0019685
X0049213
X006802Y0180094
X007482Y0170894
X008912Y0174894
X0088583Y0185039
X0108268
X0127953
X0147638
X0110236Y0165354
X0057087Y0163386
X015892Y0163694
X0167323Y0185039
X0187008
X0206693
X0226378
X0246063
X0265748
X0285433
X0305118
T02
X018642Y0026894
X023562Y0076894
X009972Y0037394
T03
X019222Y0082894
T04
X019342Y0153894
X0212632
X008302Y0144594
Y0138994
X0078232Y0114794
X005902
T05
X029172Y0034988
Y0046799
X029182Y0064494
Y0074494
T06
X024862Y0115377
X026252Y0115677
Y015111
X024862Y015081
T07
X000652Y0108394
Y0118394
Y0128394
Y0138394
X003652
Y0128394
Y0118394
Y0108394
X010042Y0173494
X011042
X012042
X013042
X014042
T08
X023862Y0034894
Y0054579
X029182Y0086951
Y0106636
X006892Y0046994
Y0027309
X0019498Y0157935
Y0175652
T09
X0029341Y0153014
Y0180573
T10
X003952Y0027394
Y0047394
Y0067394
Y0087394
T11
X0118962Y0048594
T12
X014849Y0048692
M30
