%FSLAX25Y25*%
%MOIN*%
G70*
G01*
G75*
G04 Layer_Color=65535*
%ADD10C,0.03937*%
%ADD11R,0.05315X0.06102*%
%ADD12O,0.07480X0.02362*%
%ADD13O,0.08268X0.01181*%
%ADD14O,0.01181X0.08268*%
%ADD15R,0.04528X0.10630*%
%ADD16R,0.04528X0.05709*%
%ADD17R,0.05118X0.03347*%
%ADD18O,0.23622X0.09843*%
G04:AMPARAMS|DCode=19|XSize=98.43mil|YSize=236.22mil|CornerRadius=0mil|HoleSize=0mil|Usage=FLASHONLY|Rotation=90.000|XOffset=0mil|YOffset=0mil|HoleType=Round|Shape=Octagon|*
%AMOCTAGOND19*
4,1,8,-0.11811,-0.02461,-0.11811,0.02461,-0.09350,0.04921,0.09350,0.04921,0.11811,0.02461,0.11811,-0.02461,0.09350,-0.04921,-0.09350,-0.04921,-0.11811,-0.02461,0.0*
%
%ADD19OCTAGOND19*%

%ADD20R,0.05118X0.05906*%
%ADD21R,0.03347X0.05118*%
%ADD22R,0.09213X0.08600*%
%ADD23R,0.02362X0.04528*%
%ADD24R,0.02362X0.07874*%
%ADD25O,0.02362X0.07874*%
%ADD26R,0.18898X0.20079*%
%ADD27R,0.03937X0.11811*%
%ADD28R,0.07874X0.01575*%
%ADD29R,0.01575X0.03937*%
%ADD30R,0.04724X0.03937*%
%ADD31R,0.05709X0.04528*%
%ADD32C,0.03937*%
%ADD33C,0.00800*%
%ADD34C,0.01500*%
%ADD35C,0.05000*%
%ADD36C,0.02000*%
%ADD37C,0.03000*%
%ADD38C,0.01200*%
%ADD39C,0.01000*%
%ADD40C,0.04000*%
%ADD41C,0.00394*%
%ADD42C,0.05906*%
%ADD43R,0.05906X0.05906*%
%ADD44C,0.04331*%
%ADD45O,0.05000X0.04000*%
%ADD46C,0.05000*%
%ADD47C,0.07087*%
%ADD48C,0.05315*%
%ADD49C,0.06299*%
%ADD50C,0.10630*%
%ADD51R,0.10630X0.10630*%
%ADD52C,0.08661*%
%ADD53C,0.02400*%
%ADD54C,0.03600*%
%ADD55R,0.03937X0.04724*%
%ADD56R,0.04331X0.05512*%
%ADD57R,0.04724X0.03150*%
%ADD58O,0.07874X0.02400*%
%ADD59O,0.07874X0.02402*%
%ADD60R,0.05512X0.04331*%
%ADD61R,0.09055X0.09055*%
%ADD62C,0.02362*%
%ADD63C,0.00984*%
%ADD64C,0.00787*%
%ADD65C,0.01575*%
%ADD66C,0.00700*%
%ADD67R,0.08000X0.01075*%
%ADD68R,0.07284X0.03866*%
D33*
X85820Y143994D02*
G03*
X83020Y146694I-2750J-50D01*
G01*
X83020Y136494D02*
G03*
X85820Y139394I-50J2850D01*
G01*
X56620Y136494D02*
Y146694D01*
X85820Y139394D02*
Y143993D01*
X56620Y136494D02*
X83020D01*
X56620Y146694D02*
X83020D01*
D37*
X77020Y54994D02*
G03*
X63020Y54994I-7000J-20330D01*
G01*
X230520Y26894D02*
G03*
X244520Y26894I7000J20330D01*
G01*
D39*
X45927Y111609D02*
G03*
X55240Y104951I9313J3185D01*
G01*
X91325Y117979D02*
G03*
X82012Y124636I-9313J-3185D01*
G01*
X55240D02*
G03*
X45927Y117979I0J-9843D01*
G01*
X82012Y104951D02*
G03*
X91325Y111609I0J9843D01*
G01*
X216412Y144051D02*
G03*
X225725Y150709I0J9843D01*
G01*
X189640Y163736D02*
G03*
X180327Y157079I0J-9843D01*
G01*
X225725D02*
G03*
X216412Y163736I-9313J-3185D01*
G01*
X180327Y150709D02*
G03*
X189640Y144051I9313J3185D01*
G01*
X169720Y68394D02*
X173220Y64894D01*
X166220D02*
X173220D01*
X166220D02*
X169720Y68394D01*
X179320Y68494D02*
X182820Y64994D01*
X175820D02*
X182820D01*
X175820D02*
X179320Y68494D01*
X55240Y104951D02*
X82012Y104951D01*
X55220Y124636D02*
X82012Y124636D01*
X150Y17394D02*
Y97394D01*
X47394Y17394D02*
Y97394D01*
X150D02*
X47394D01*
X150Y17394D02*
X47394D01*
X189620Y163736D02*
X216412Y163736D01*
X189640Y144051D02*
X216412Y144051D01*
X0Y0D02*
Y200787D01*
Y0D02*
X314961D01*
X0Y200787D02*
X314961D01*
Y0D02*
Y200787D01*
X43418Y184394D02*
X37420D01*
Y181395D01*
X38419Y180395D01*
X39419D01*
X40419Y181395D01*
Y184394D01*
Y181395D01*
X41418Y180395D01*
X42418D01*
X43418Y181395D01*
Y184394D01*
X37420Y178396D02*
Y176396D01*
Y177396D01*
X43418D01*
X42418Y178396D01*
X86320Y68194D02*
X80322D01*
Y71193D01*
X81321Y72192D01*
X83321D01*
X84320Y71193D01*
Y68194D01*
Y70193D02*
X86320Y72192D01*
Y78190D02*
Y74192D01*
X82321Y78190D01*
X81321D01*
X80322Y77191D01*
Y75191D01*
X81321Y74192D01*
X80322Y80190D02*
Y84188D01*
X81321D01*
X85320Y80190D01*
X86320D01*
X24518Y137292D02*
X23519Y138292D01*
X21519D01*
X20520Y137292D01*
Y136292D01*
X21519Y135293D01*
X23519D01*
X24518Y134293D01*
Y133293D01*
X23519Y132294D01*
X21519D01*
X20520Y133293D01*
X26518Y132294D02*
X28517D01*
X27517D01*
Y138292D01*
X26518Y137292D01*
X104020Y147394D02*
Y153392D01*
X107019D01*
X108018Y152392D01*
Y150393D01*
X107019Y149393D01*
X104020D01*
X106019D02*
X108018Y147394D01*
X110018D02*
X112017D01*
X111017D01*
Y153392D01*
X110018Y152392D01*
X115016D02*
X116016Y153392D01*
X118015D01*
X119015Y152392D01*
Y148393D01*
X118015Y147394D01*
X116016D01*
X115016Y148393D01*
Y152392D01*
X111220Y96494D02*
Y102492D01*
X114219D01*
X115218Y101492D01*
Y99493D01*
X114219Y98493D01*
X111220D01*
X113219D02*
X115218Y96494D01*
X117218Y97493D02*
X118217Y96494D01*
X120217D01*
X121216Y97493D01*
Y101492D01*
X120217Y102492D01*
X118217D01*
X117218Y101492D01*
Y100492D01*
X118217Y99493D01*
X121216D01*
X89820Y161294D02*
Y167292D01*
X92819D01*
X93818Y166292D01*
Y164293D01*
X92819Y163293D01*
X89820D01*
X91819D02*
X93818Y161294D01*
X95818Y166292D02*
X96817Y167292D01*
X98817D01*
X99817Y166292D01*
Y165292D01*
X98817Y164293D01*
X99817Y163293D01*
Y162293D01*
X98817Y161294D01*
X96817D01*
X95818Y162293D01*
Y163293D01*
X96817Y164293D01*
X95818Y165292D01*
Y166292D01*
X96817Y164293D02*
X98817D01*
X110620Y75194D02*
Y81192D01*
X113619D01*
X114618Y80192D01*
Y78193D01*
X113619Y77193D01*
X110620D01*
X112619D02*
X114618Y75194D01*
X116618Y81192D02*
X120616D01*
Y80192D01*
X116618Y76193D01*
Y75194D01*
X103320Y62394D02*
X97322D01*
Y65393D01*
X98321Y66392D01*
X100321D01*
X101320Y65393D01*
Y62394D01*
Y64393D02*
X103320Y66392D01*
X97322Y72391D02*
Y68392D01*
X100321D01*
X99321Y70391D01*
Y71391D01*
X100321Y72391D01*
X102320D01*
X103320Y71391D01*
Y69391D01*
X102320Y68392D01*
X45520Y150594D02*
X39522D01*
Y153593D01*
X40521Y154592D01*
X42521D01*
X43520Y153593D01*
Y150594D01*
Y152593D02*
X45520Y154592D01*
Y159591D02*
X39522D01*
X42521Y156592D01*
Y160591D01*
X76220Y181594D02*
Y187592D01*
X79219D01*
X80218Y186592D01*
Y184593D01*
X79219Y183593D01*
X76220D01*
X78219D02*
X80218Y181594D01*
X82218Y186592D02*
X83217Y187592D01*
X85217D01*
X86216Y186592D01*
Y185592D01*
X85217Y184593D01*
X84217D01*
X85217D01*
X86216Y183593D01*
Y182593D01*
X85217Y181594D01*
X83217D01*
X82218Y182593D01*
X134920Y180594D02*
Y186592D01*
X137919D01*
X138918Y185592D01*
Y183593D01*
X137919Y182593D01*
X134920D01*
X140918Y180594D02*
X142917D01*
X141917D01*
Y186592D01*
X140918Y185592D01*
X166522Y80094D02*
X172520D01*
Y83093D01*
X171520Y84092D01*
X167521D01*
X166522Y83093D01*
Y80094D01*
X172520Y90091D02*
Y86092D01*
X168521Y90091D01*
X167521D01*
X166522Y89091D01*
Y87091D01*
X167521Y86092D01*
X176222Y81294D02*
X182220D01*
Y84293D01*
X181220Y85292D01*
X177221D01*
X176222Y84293D01*
Y81294D01*
X182220Y87292D02*
Y89291D01*
Y88291D01*
X176222D01*
X177221Y87292D01*
X144518Y97495D02*
X145518Y98495D01*
Y100494D01*
X144518Y101494D01*
X140519D01*
X139520Y100494D01*
Y98495D01*
X140519Y97495D01*
X139520Y95496D02*
Y93496D01*
Y94496D01*
X145518D01*
X144518Y95496D01*
X139520Y90497D02*
Y88498D01*
Y89498D01*
X145518D01*
X144518Y90497D01*
X150218Y166992D02*
X149219Y167992D01*
X147219D01*
X146220Y166992D01*
Y162993D01*
X147219Y161994D01*
X149219D01*
X150218Y162993D01*
X152218Y166992D02*
X153217Y167992D01*
X155217D01*
X156217Y166992D01*
Y165992D01*
X155217Y164993D01*
X156217Y163993D01*
Y162993D01*
X155217Y161994D01*
X153217D01*
X152218Y162993D01*
Y163993D01*
X153217Y164993D01*
X152218Y165992D01*
Y166992D01*
X153217Y164993D02*
X155217D01*
X79018Y91792D02*
X78019Y92792D01*
X76019D01*
X75020Y91792D01*
Y87793D01*
X76019Y86794D01*
X78019D01*
X79018Y87793D01*
X85017Y92792D02*
X81018D01*
Y89793D01*
X83017Y90792D01*
X84017D01*
X85017Y89793D01*
Y87793D01*
X84017Y86794D01*
X82017D01*
X81018Y87793D01*
X89720Y24392D02*
Y18394D01*
X92719D01*
X93718Y19393D01*
Y20393D01*
X92719Y21393D01*
X89720D01*
X92719D01*
X93718Y22392D01*
Y23392D01*
X92719Y24392D01*
X89720D01*
X95718Y18394D02*
Y22392D01*
X97717Y24392D01*
X99717Y22392D01*
Y18394D01*
Y21393D01*
X95718D01*
X101716Y24392D02*
X105714D01*
X103715D01*
Y18394D01*
X107714Y23392D02*
X108714Y24392D01*
X110713D01*
X111713Y23392D01*
Y22392D01*
X109713Y20393D01*
Y19393D02*
Y18394D01*
X43122Y123794D02*
X44121D01*
X46121Y125793D01*
X44121Y127792D01*
X43122D01*
X46121Y125793D02*
X49120D01*
Y133791D02*
Y129792D01*
X45121Y133791D01*
X44121D01*
X43122Y132791D01*
Y130791D01*
X44121Y129792D01*
X46922Y137094D02*
X47921D01*
X49921Y139093D01*
X47921Y141092D01*
X46922D01*
X49921Y139093D02*
X52920D01*
Y143092D02*
Y145091D01*
Y144091D01*
X46922D01*
X47921Y143092D01*
X66518Y91392D02*
X65519Y92392D01*
X63519D01*
X62520Y91392D01*
Y87393D01*
X63519Y86394D01*
X65519D01*
X66518Y87393D01*
X71517Y86394D02*
Y92392D01*
X68518Y89393D01*
X72517D01*
X54018Y91192D02*
X53019Y92192D01*
X51019D01*
X50020Y91192D01*
Y87193D01*
X51019Y86194D01*
X53019D01*
X54018Y87193D01*
X56018Y91192D02*
X57017Y92192D01*
X59017D01*
X60017Y91192D01*
Y90192D01*
X59017Y89193D01*
X58017D01*
X59017D01*
X60017Y88193D01*
Y87193D01*
X59017Y86194D01*
X57017D01*
X56018Y87193D01*
X56318Y132792D02*
X55319Y133792D01*
X53319D01*
X52320Y132792D01*
Y128793D01*
X53319Y127794D01*
X55319D01*
X56318Y128793D01*
X62317Y127794D02*
X58318D01*
X62317Y131792D01*
Y132792D01*
X61317Y133792D01*
X59317D01*
X58318Y132792D01*
X78318Y164992D02*
X77319Y165992D01*
X75319D01*
X74320Y164992D01*
Y160993D01*
X75319Y159994D01*
X77319D01*
X78318Y160993D01*
X80318Y159994D02*
X82317D01*
X81317D01*
Y165992D01*
X80318Y164992D01*
X54820Y187692D02*
Y182693D01*
X55819Y181694D01*
X57819D01*
X58818Y182693D01*
Y187692D01*
X64816Y181694D02*
X60818D01*
X64816Y185692D01*
Y186692D01*
X63817Y187692D01*
X61817D01*
X60818Y186692D01*
X128020Y153292D02*
Y148293D01*
X129019Y147294D01*
X131019D01*
X132018Y148293D01*
Y153292D01*
X134018Y147294D02*
X136017D01*
X135017D01*
Y153292D01*
X134018Y152292D01*
X219270Y169244D02*
Y167244D01*
Y168244D01*
X225268D01*
X224268Y169244D01*
X53518Y63292D02*
X52519Y64292D01*
X50519D01*
X49520Y63292D01*
Y59293D01*
X50519Y58294D01*
X52519D01*
X53518Y59293D01*
X55518Y58294D02*
X57517D01*
X56517D01*
Y64292D01*
X55518Y63292D01*
X64515Y64292D02*
X60516D01*
Y61293D01*
X62515Y62292D01*
X63515D01*
X64515Y61293D01*
Y59293D01*
X63515Y58294D01*
X61516D01*
X60516Y59293D01*
X224718Y21092D02*
X223719Y22092D01*
X221719D01*
X220720Y21092D01*
Y17093D01*
X221719Y16094D01*
X223719D01*
X224718Y17093D01*
X226718Y16094D02*
X228717D01*
X227717D01*
Y22092D01*
X226718Y21092D01*
X235715Y22092D02*
X233716Y21092D01*
X231716Y19093D01*
Y17093D01*
X232716Y16094D01*
X234715D01*
X235715Y17093D01*
Y18093D01*
X234715Y19093D01*
X231716D01*
X155822Y128594D02*
X160820D01*
X161820Y129593D01*
Y131593D01*
X160820Y132592D01*
X155822D01*
X161820Y137591D02*
X155822D01*
X158821Y134592D01*
Y138591D01*
X205218Y182692D02*
X204219Y183692D01*
X202219D01*
X201220Y182692D01*
Y178693D01*
X202219Y177694D01*
X204219D01*
X205218Y178693D01*
X207218Y177694D02*
X209217D01*
X208217D01*
Y183692D01*
X207218Y182692D01*
X212216Y178693D02*
X213216Y177694D01*
X215215D01*
X216215Y178693D01*
Y182692D01*
X215215Y183692D01*
X213216D01*
X212216Y182692D01*
Y181692D01*
X213216Y180693D01*
X216215D01*
X185518Y182692D02*
X184519Y183692D01*
X182519D01*
X181520Y182692D01*
Y178693D01*
X182519Y177694D01*
X184519D01*
X185518Y178693D01*
X191516Y177694D02*
X187518D01*
X191516Y181692D01*
Y182692D01*
X190517Y183692D01*
X188517D01*
X187518Y182692D01*
X193516D02*
X194516Y183692D01*
X196515D01*
X197514Y182692D01*
Y178693D01*
X196515Y177694D01*
X194516D01*
X193516Y178693D01*
Y182692D01*
X204618Y88292D02*
X203619Y89292D01*
X201619D01*
X200620Y88292D01*
Y84293D01*
X201619Y83294D01*
X203619D01*
X204618Y84293D01*
X210616Y83294D02*
X206618D01*
X210616Y87292D01*
Y88292D01*
X209617Y89292D01*
X207617D01*
X206618Y88292D01*
X212616Y83294D02*
X214615D01*
X213615D01*
Y89292D01*
X212616Y88292D01*
X204318Y78692D02*
X203319Y79692D01*
X201319D01*
X200320Y78692D01*
Y74693D01*
X201319Y73694D01*
X203319D01*
X204318Y74693D01*
X210316Y73694D02*
X206318D01*
X210316Y77692D01*
Y78692D01*
X209317Y79692D01*
X207317D01*
X206318Y78692D01*
X216315Y73694D02*
X212316D01*
X216315Y77692D01*
Y78692D01*
X215315Y79692D01*
X213316D01*
X212316Y78692D01*
X8421Y50392D02*
X7422Y49393D01*
Y47393D01*
X8421Y46394D01*
X12420D01*
X13420Y47393D01*
Y49393D01*
X12420Y50392D01*
X13420Y52392D02*
X7422D01*
X13420Y56391D01*
X7422D01*
X13420Y58390D02*
Y60389D01*
Y59390D01*
X7422D01*
X8421Y58390D01*
X245322Y159294D02*
X251320D01*
Y162293D01*
X250320Y163292D01*
X246321D01*
X245322Y162293D01*
Y159294D01*
Y169290D02*
Y165292D01*
X248321D01*
X247321Y167291D01*
Y168291D01*
X248321Y169290D01*
X250320D01*
X251320Y168291D01*
Y166291D01*
X250320Y165292D01*
X287520Y118792D02*
Y112794D01*
X290519D01*
X291518Y113793D01*
Y117792D01*
X290519Y118792D01*
X287520D01*
X297516D02*
X295517Y117792D01*
X293518Y115793D01*
Y113793D01*
X294517Y112794D01*
X296517D01*
X297516Y113793D01*
Y114793D01*
X296517Y115793D01*
X293518D01*
X274718Y93094D02*
X268720D01*
Y90095D01*
X269719Y89095D01*
X273718D01*
X274718Y90095D01*
Y93094D01*
Y87096D02*
Y83097D01*
X273718D01*
X269719Y87096D01*
X268720D01*
X290620Y58692D02*
Y52694D01*
X293619D01*
X294618Y53693D01*
Y57692D01*
X293619Y58692D01*
X290620D01*
X296618Y57692D02*
X297617Y58692D01*
X299617D01*
X300617Y57692D01*
Y56692D01*
X299617Y55693D01*
X300617Y54693D01*
Y53693D01*
X299617Y52694D01*
X297617D01*
X296618Y53693D01*
Y54693D01*
X297617Y55693D01*
X296618Y56692D01*
Y57692D01*
X297617Y55693D02*
X299617D01*
X294018Y131293D02*
Y135292D01*
X293019Y136292D01*
X291019D01*
X290020Y135292D01*
Y131293D01*
X291019Y130294D01*
X293019D01*
X292019Y132293D02*
X294018Y130294D01*
X293019D02*
X294018Y131293D01*
X296018Y130294D02*
X298017D01*
X297017D01*
Y136292D01*
X296018Y135292D01*
X276618Y131293D02*
Y135292D01*
X275619Y136292D01*
X273619D01*
X272620Y135292D01*
Y131293D01*
X273619Y130294D01*
X275619D01*
X274619Y132293D02*
X276618Y130294D01*
X275619D02*
X276618Y131293D01*
X282616Y130294D02*
X278618D01*
X282616Y134292D01*
Y135292D01*
X281617Y136292D01*
X279617D01*
X278618Y135292D01*
X258718Y79993D02*
Y83992D01*
X257719Y84992D01*
X255719D01*
X254720Y83992D01*
Y79993D01*
X255719Y78994D01*
X257719D01*
X256719Y80993D02*
X258718Y78994D01*
X257719D02*
X258718Y79993D01*
X260718Y83992D02*
X261717Y84992D01*
X263717D01*
X264717Y83992D01*
Y82992D01*
X263717Y81993D01*
X262717D01*
X263717D01*
X264717Y80993D01*
Y79993D01*
X263717Y78994D01*
X261717D01*
X260718Y79993D01*
X236620Y163294D02*
X230622D01*
Y166293D01*
X231621Y167292D01*
X233621D01*
X234620Y166293D01*
Y163294D01*
Y165293D02*
X236620Y167292D01*
Y169292D02*
Y171291D01*
Y170291D01*
X230622D01*
X231621Y169292D01*
Y174290D02*
X230622Y175290D01*
Y177289D01*
X231621Y178289D01*
X232621D01*
X233621Y177289D01*
Y176289D01*
Y177289D01*
X234620Y178289D01*
X235620D01*
X236620Y177289D01*
Y175290D01*
X235620Y174290D01*
X275720Y173494D02*
X269722D01*
Y176493D01*
X270721Y177492D01*
X272721D01*
X273720Y176493D01*
Y173494D01*
Y175493D02*
X275720Y177492D01*
Y179492D02*
Y181491D01*
Y180491D01*
X269722D01*
X270721Y179492D01*
X269722Y188489D02*
Y184490D01*
X272721D01*
X271721Y186489D01*
Y187489D01*
X272721Y188489D01*
X274720D01*
X275720Y187489D01*
Y185490D01*
X274720Y184490D01*
X284420Y173294D02*
X278422D01*
Y176293D01*
X279421Y177292D01*
X281421D01*
X282420Y176293D01*
Y173294D01*
Y175293D02*
X284420Y177292D01*
Y179292D02*
Y181291D01*
Y180291D01*
X278422D01*
X279421Y179292D01*
X278422Y188289D02*
X279421Y186290D01*
X281421Y184290D01*
X283420D01*
X284420Y185290D01*
Y187289D01*
X283420Y188289D01*
X282420D01*
X281421Y187289D01*
Y184290D01*
X265420Y173494D02*
X259422D01*
Y176493D01*
X260421Y177492D01*
X262421D01*
X263420Y176493D01*
Y173494D01*
Y175493D02*
X265420Y177492D01*
Y179492D02*
Y181491D01*
Y180491D01*
X259422D01*
X260421Y179492D01*
X259422Y184490D02*
Y188489D01*
X260421D01*
X264420Y184490D01*
X265420D01*
X274520Y112594D02*
X268522D01*
Y115593D01*
X269521Y116592D01*
X271521D01*
X272520Y115593D01*
Y112594D01*
Y114593D02*
X274520Y116592D01*
Y118592D02*
Y120591D01*
Y119591D01*
X268522D01*
X269521Y118592D01*
Y123590D02*
X268522Y124590D01*
Y126589D01*
X269521Y127589D01*
X270521D01*
X271521Y126589D01*
X272520Y127589D01*
X273520D01*
X274520Y126589D01*
Y124590D01*
X273520Y123590D01*
X272520D01*
X271521Y124590D01*
X270521Y123590D01*
X269521D01*
X271521Y124590D02*
Y126589D01*
X242620Y92994D02*
X248618D01*
Y89995D01*
X247618Y88995D01*
X245619D01*
X244619Y89995D01*
Y92994D01*
Y90994D02*
X242620Y88995D01*
Y86996D02*
Y84996D01*
Y85996D01*
X248618D01*
X247618Y86996D01*
X243619Y81997D02*
X242620Y80998D01*
Y78998D01*
X243619Y77999D01*
X247618D01*
X248618Y78998D01*
Y80998D01*
X247618Y81997D01*
X246618D01*
X245619Y80998D01*
Y77999D01*
X266320Y62894D02*
X260322D01*
Y65893D01*
X261321Y66892D01*
X263321D01*
X264320Y65893D01*
Y62894D01*
Y64893D02*
X266320Y66892D01*
Y72891D02*
Y68892D01*
X262321Y72891D01*
X261321D01*
X260322Y71891D01*
Y69891D01*
X261321Y68892D01*
X266320Y74890D02*
Y76889D01*
Y75889D01*
X260322D01*
X261321Y74890D01*
X154920Y109394D02*
X160918D01*
Y106395D01*
X159918Y105395D01*
X157919D01*
X156919Y106395D01*
Y109394D01*
Y107394D02*
X154920Y105395D01*
Y99397D02*
Y103396D01*
X158918Y99397D01*
X159918D01*
X160918Y100397D01*
Y102396D01*
X159918Y103396D01*
X154920Y93399D02*
Y97398D01*
X158918Y93399D01*
X159918D01*
X160918Y94399D01*
Y96398D01*
X159918Y97398D01*
X169820Y179794D02*
X175818D01*
Y176795D01*
X174818Y175795D01*
X172819D01*
X171819Y176795D01*
Y179794D01*
Y177794D02*
X169820Y175795D01*
Y169797D02*
Y173796D01*
X173818Y169797D01*
X174818D01*
X175818Y170797D01*
Y172796D01*
X174818Y173796D01*
Y167798D02*
X175818Y166798D01*
Y164799D01*
X174818Y163799D01*
X170819D01*
X169820Y164799D01*
Y166798D01*
X170819Y167798D01*
X174818D01*
X174020Y41292D02*
Y36293D01*
X175019Y35294D01*
X177019D01*
X178018Y36293D01*
Y41292D01*
X180018Y40292D02*
X181017Y41292D01*
X183017D01*
X184017Y40292D01*
Y39292D01*
X183017Y38293D01*
X184017Y37293D01*
Y36293D01*
X183017Y35294D01*
X181017D01*
X180018Y36293D01*
Y37293D01*
X181017Y38293D01*
X180018Y39292D01*
Y40292D01*
X181017Y38293D02*
X183017D01*
X269418Y28295D02*
X270418Y29295D01*
Y31294D01*
X269418Y32294D01*
X265419D01*
X264420Y31294D01*
Y29295D01*
X265419Y28295D01*
X264420Y26296D02*
Y24296D01*
Y25296D01*
X270418D01*
X269418Y26296D01*
Y21297D02*
X270418Y20298D01*
Y18298D01*
X269418Y17299D01*
X268418D01*
X267419Y18298D01*
X266419Y17299D01*
X265419D01*
X264420Y18298D01*
Y20298D01*
X265419Y21297D01*
X266419D01*
X267419Y20298D01*
X268418Y21297D01*
X269418D01*
X267419Y20298D02*
Y18298D01*
X273120Y32794D02*
X279118D01*
Y29795D01*
X278118Y28795D01*
X276119D01*
X275119Y29795D01*
Y32794D01*
Y30794D02*
X273120Y28795D01*
Y22797D02*
Y26796D01*
X277118Y22797D01*
X278118D01*
X279118Y23797D01*
Y25796D01*
X278118Y26796D01*
Y20798D02*
X279118Y19798D01*
Y17799D01*
X278118Y16799D01*
X277118D01*
X276119Y17799D01*
X275119Y16799D01*
X274119D01*
X273120Y17799D01*
Y19798D01*
X274119Y20798D01*
X275119D01*
X276119Y19798D01*
X277118Y20798D01*
X278118D01*
X276119Y19798D02*
Y17799D01*
X287320Y22594D02*
Y28592D01*
X290319D01*
X291318Y27592D01*
Y25593D01*
X290319Y24593D01*
X287320D01*
X289319D02*
X291318Y22594D01*
X293318Y28592D02*
X297317D01*
X295317D01*
Y22594D01*
X299316D02*
X301315D01*
X300315D01*
Y28592D01*
X299316Y27592D01*
X0Y0D02*
X314961D01*
Y200787D01*
X0D02*
X314961D01*
X0Y0D02*
Y200787D01*
D41*
X205860Y27611D02*
X206047Y27423D01*
X205860Y27236D01*
X205672Y27423D01*
Y27611D01*
X205860Y27986D01*
X206047Y28173D01*
X206610Y28361D01*
X207359D01*
X207922Y28173D01*
X208109Y27798D01*
Y27236D01*
X207922Y26861D01*
X207359Y26674D01*
X206797D01*
X207359Y28361D02*
X207734Y28173D01*
X207922Y27798D01*
Y27236D01*
X207734Y26861D01*
X207359Y26674D01*
X207734Y26486D01*
X208109Y26111D01*
X208297Y25736D01*
Y25174D01*
X208109Y24799D01*
X207922Y24612D01*
X207359Y24424D01*
X206610D01*
X206047Y24612D01*
X205860Y24799D01*
X205672Y25174D01*
Y25362D01*
X205860Y25549D01*
X206047Y25362D01*
X205860Y25174D01*
X207922Y26299D02*
X208109Y25736D01*
Y25174D01*
X207922Y24799D01*
X207734Y24612D01*
X207359Y24424D01*
X196814Y27611D02*
X197189Y27798D01*
X197751Y28361D01*
Y24424D01*
X197564Y28173D02*
Y24424D01*
X196814D02*
X198501D01*
X191799Y71194D02*
Y67633D01*
X192923Y68758D02*
X189924D01*
X191986Y71569D01*
Y67633D01*
X191236D02*
X192549D01*
X20120Y36906D02*
Y38481D01*
X19332Y37694D02*
X20907D01*
D62*
X16205Y139732D02*
G03*
X16205Y139732I-1181J0D01*
G01*
X110805Y129790D02*
G03*
X110805Y129790I-1181J0D01*
G01*
D63*
X7012Y143512D02*
G03*
X7012Y143512I-492J0D01*
G01*
X50160Y179340D02*
G03*
X50160Y179340I-492J0D01*
G01*
X100470Y136876D02*
G03*
X100470Y136876I-492J0D01*
G01*
X284898Y151123D02*
G03*
X284898Y151123I-492J0D01*
G01*
X301498Y150923D02*
G03*
X301498Y150923I-492J0D01*
G01*
X266198Y99123D02*
G03*
X266198Y99123I-492J0D01*
G01*
D64*
X19020Y145894D02*
G03*
X24020Y145894I2500J0D01*
G01*
X88605Y36994D02*
G03*
X88605Y36994I-19685J0D01*
G01*
X290251Y60976D02*
G03*
X290102Y61004I1569J8518D01*
G01*
X290251Y88276D02*
G03*
X290102Y88304I1569J8518D01*
G01*
X236279Y117688D02*
G03*
X236279Y115129I0J-1280D01*
G01*
X258305Y44894D02*
G03*
X258305Y44894I-19685J0D01*
G01*
X290151Y32376D02*
G03*
X290002Y32404I1569J8518D01*
G01*
X654Y100618D02*
X42386D01*
X24020Y146169D02*
X42386D01*
X654D02*
X19020D01*
X42453Y100520D02*
Y146268D01*
X587Y100520D02*
Y146268D01*
X72723Y128136D02*
X73116D01*
X72723Y133451D02*
X73116D01*
X72923Y155251D02*
X73317D01*
X72923Y149936D02*
X73317D01*
X54983Y158454D02*
X62857D01*
X54983Y178533D02*
X62857D01*
Y158454D02*
Y178533D01*
X54983Y158454D02*
Y178533D01*
X105687Y112861D02*
Y133727D01*
X126553Y112861D02*
Y133727D01*
X105687D02*
X126553D01*
X105687Y112861D02*
X126553D01*
X148654Y149072D02*
X152985D01*
X148654Y158915D02*
X152985D01*
X130423Y96954D02*
X130816D01*
X130423Y92033D02*
X130816D01*
X61323Y101351D02*
X61717D01*
X61323Y96036D02*
X61717D01*
X79523Y95936D02*
X79917D01*
X79523Y101251D02*
X79917D01*
X95954Y88572D02*
X100285D01*
X95954Y98415D02*
X100285D01*
X101954Y81097D02*
Y81491D01*
X106285Y81097D02*
Y81491D01*
X90254Y80697D02*
Y81091D01*
X94585Y80697D02*
Y81091D01*
X56223Y155859D02*
X56616D01*
X56223Y151528D02*
X56616D01*
X83385Y173397D02*
Y173791D01*
X79054Y173397D02*
Y173791D01*
X115423Y87959D02*
X115817D01*
X115423Y83628D02*
X115817D01*
X115423Y90628D02*
X115816D01*
X115423Y94959D02*
X115816D01*
X93923Y158659D02*
X94317D01*
X93923Y154328D02*
X94317D01*
X93923Y147728D02*
X94317D01*
X93923Y152059D02*
X94317D01*
X95420Y168494D02*
Y178494D01*
X145420D01*
X95420Y168494D02*
X145420D01*
Y178494D01*
X274985Y67797D02*
Y68191D01*
X270654Y67797D02*
Y68191D01*
X224523Y83533D02*
X224917D01*
X224523Y88454D02*
X224917D01*
X271414Y143938D02*
X274564D01*
X271414D02*
Y147481D01*
X280076Y143938D02*
X283225D01*
Y147481D01*
X208523Y173251D02*
X208916D01*
X208523Y167936D02*
X208916D01*
X288014Y143738D02*
X291164D01*
X288014D02*
Y147281D01*
X296676Y143738D02*
X299825D01*
Y147281D01*
X252261Y124728D02*
Y141460D01*
X244978D02*
X252261D01*
X244978Y124728D02*
X252261D01*
X244978D02*
Y141460D01*
X156054Y117897D02*
Y118290D01*
X160385Y117897D02*
Y118290D01*
X252714Y91938D02*
X255864D01*
X252714D02*
Y95481D01*
X261376Y91938D02*
X264525D01*
Y95481D01*
X258878Y125028D02*
Y141760D01*
Y125028D02*
X266161D01*
X258878Y141760D02*
X266161D01*
Y125028D02*
Y141760D01*
X224523Y75133D02*
X224917D01*
X224523Y80054D02*
X224917D01*
X189223Y173251D02*
X189617D01*
X189223Y167936D02*
X189617D01*
X236279Y117688D02*
Y128869D01*
Y103948D02*
Y115129D01*
X164625Y103948D02*
X236279D01*
X164625D02*
Y128869D01*
X236279D01*
X216598Y19109D02*
Y65960D01*
X188645D02*
X216598D01*
X188645Y19109D02*
Y65960D01*
Y19109D02*
X216598D01*
X230176Y145302D02*
X237263D01*
X230176Y158885D02*
X237263D01*
Y145302D02*
Y158885D01*
X230176Y145302D02*
Y158885D01*
X269276Y170685D02*
X276363D01*
X269276Y157102D02*
X276363D01*
X269276D02*
Y170685D01*
X276363Y157102D02*
Y170685D01*
X277476D02*
X284563D01*
X277476Y157102D02*
X284563D01*
X277476D02*
Y170685D01*
X284563Y157102D02*
Y170685D01*
X259076Y157202D02*
X266163D01*
X259076Y170785D02*
X266163D01*
Y157202D02*
Y170785D01*
X259076Y157202D02*
Y170785D01*
X267776Y96102D02*
X274863D01*
X267776Y109685D02*
X274863D01*
Y96102D02*
Y109685D01*
X267776Y96102D02*
Y109685D01*
X242376D02*
X249463D01*
X242376Y96102D02*
X249463D01*
X242376D02*
Y109685D01*
X249463Y96102D02*
Y109685D01*
X169876Y160985D02*
X176963D01*
X169876Y147402D02*
X176963D01*
X169876D02*
Y160985D01*
X176963Y147402D02*
Y160985D01*
X270180Y42197D02*
Y42591D01*
X265259Y42197D02*
Y42591D01*
X274254Y42497D02*
Y42891D01*
X278585Y42497D02*
Y42891D01*
X9459Y147502D02*
Y186085D01*
X35247Y147502D02*
Y186085D01*
X284289Y54433D02*
Y59494D01*
X286820Y56963D02*
X281759D01*
X284289Y81733D02*
Y86794D01*
X286820Y84263D02*
X281759D01*
D65*
X58920Y175383D02*
G03*
X58920Y175383I-787J0D01*
G01*
D66*
X146226Y63594D02*
G03*
X121237Y63603I-12500J-15000D01*
G01*
Y33585D02*
G03*
X146203Y33575I12489J15009D01*
G01*
X133726Y18594D02*
G03*
X163546Y45314I0J30000D01*
G01*
X103906D02*
G03*
X133726Y18594I29820J3280D01*
G01*
X163546Y51874D02*
G03*
X103906Y51874I-29820J-3280D01*
G01*
X149081Y22610D02*
X151443Y20247D01*
X149179Y74676D02*
X151443Y76940D01*
X163254D01*
Y56468D02*
Y76940D01*
X151443Y20247D02*
X163254D01*
Y40720D01*
D67*
X169720Y69931D02*
D03*
X179320Y70031D02*
D03*
D68*
X248620Y139527D02*
D03*
X262520Y126961D02*
D03*
M02*
