%FSLAX25Y25*%
%MOIN*%
G70*
G01*
G75*
G04 Layer_Color=16711935*
%ADD10C,0.03937*%
%ADD11R,0.05315X0.06102*%
%ADD12O,0.07480X0.02362*%
%ADD13O,0.08268X0.01181*%
%ADD14O,0.01181X0.08268*%
%ADD15R,0.04528X0.10630*%
%ADD16R,0.04528X0.05709*%
%ADD17R,0.05118X0.03347*%
%ADD18O,0.23622X0.09843*%
G04:AMPARAMS|DCode=19|XSize=98.43mil|YSize=236.22mil|CornerRadius=0mil|HoleSize=0mil|Usage=FLASHONLY|Rotation=90.000|XOffset=0mil|YOffset=0mil|HoleType=Round|Shape=Octagon|*
%AMOCTAGOND19*
4,1,8,-0.11811,-0.02461,-0.11811,0.02461,-0.09350,0.04921,0.09350,0.04921,0.11811,0.02461,0.11811,-0.02461,0.09350,-0.04921,-0.09350,-0.04921,-0.11811,-0.02461,0.0*
%
%ADD19OCTAGOND19*%

%ADD20R,0.05118X0.05906*%
%ADD21R,0.03347X0.05118*%
%ADD22R,0.09213X0.08600*%
%ADD23R,0.02362X0.04528*%
%ADD24R,0.02362X0.07874*%
%ADD25O,0.02362X0.07874*%
%ADD26R,0.18898X0.20079*%
%ADD27R,0.03937X0.11811*%
%ADD28R,0.07874X0.01575*%
%ADD29R,0.01575X0.03937*%
%ADD30R,0.04724X0.03937*%
%ADD31R,0.05709X0.04528*%
%ADD32C,0.03937*%
%ADD33C,0.00800*%
%ADD34C,0.01500*%
%ADD35C,0.05000*%
%ADD36C,0.02000*%
%ADD37C,0.03000*%
%ADD38C,0.01200*%
%ADD39C,0.01000*%
%ADD40C,0.04000*%
%ADD41C,0.00394*%
%ADD42C,0.05906*%
%ADD43R,0.05906X0.05906*%
%ADD44C,0.04331*%
%ADD45O,0.05000X0.04000*%
%ADD46C,0.05000*%
%ADD47C,0.07087*%
%ADD48C,0.05315*%
%ADD49C,0.06299*%
%ADD50C,0.10630*%
%ADD51R,0.10630X0.10630*%
%ADD52C,0.08661*%
%ADD53C,0.02400*%
%ADD54C,0.03600*%
%ADD55R,0.03937X0.04724*%
%ADD56R,0.04331X0.05512*%
%ADD57R,0.04724X0.03150*%
%ADD58O,0.07874X0.02400*%
%ADD59O,0.07874X0.02402*%
%ADD60R,0.05512X0.04331*%
%ADD61R,0.09055X0.09055*%
%ADD62C,0.02362*%
%ADD63C,0.00984*%
%ADD64C,0.00787*%
%ADD65C,0.01575*%
%ADD66C,0.00700*%
%ADD67R,0.08000X0.01075*%
%ADD68R,0.07284X0.03866*%
%ADD69C,0.05906*%
%ADD70R,0.06115X0.06902*%
%ADD71O,0.08280X0.03162*%
%ADD72O,0.09068X0.01981*%
%ADD73O,0.01981X0.09068*%
%ADD74R,0.05328X0.11430*%
%ADD75R,0.05328X0.06509*%
%ADD76R,0.05918X0.04147*%
%ADD77O,0.24422X0.10642*%
G04:AMPARAMS|DCode=78|XSize=106.42mil|YSize=244.22mil|CornerRadius=0mil|HoleSize=0mil|Usage=FLASHONLY|Rotation=90.000|XOffset=0mil|YOffset=0mil|HoleType=Round|Shape=Octagon|*
%AMOCTAGOND78*
4,1,8,-0.12211,-0.02661,-0.12211,0.02661,-0.09550,0.05321,0.09550,0.05321,0.12211,0.02661,0.12211,-0.02661,0.09550,-0.05321,-0.09550,-0.05321,-0.12211,-0.02661,0.0*
%
%ADD78OCTAGOND78*%

%ADD79R,0.05918X0.06706*%
%ADD80R,0.04147X0.05918*%
%ADD81R,0.10013X0.09400*%
%ADD82R,0.03162X0.05328*%
%ADD83R,0.03162X0.08674*%
%ADD84O,0.03162X0.08674*%
%ADD85R,0.19698X0.20879*%
%ADD86R,0.04737X0.12611*%
%ADD87R,0.08674X0.02375*%
%ADD88R,0.02375X0.04737*%
%ADD89R,0.05524X0.04737*%
%ADD90R,0.06509X0.05328*%
%ADD91C,0.04737*%
%ADD92C,0.06706*%
%ADD93R,0.06706X0.06706*%
%ADD94C,0.05131*%
%ADD95O,0.05800X0.04800*%
%ADD96C,0.05800*%
%ADD97C,0.07887*%
%ADD98C,0.06115*%
%ADD99C,0.07099*%
%ADD100C,0.11430*%
%ADD101R,0.11430X0.11430*%
%ADD102C,0.09461*%
%ADD103C,0.03200*%
%ADD104R,0.04737X0.05524*%
%ADD105R,0.05131X0.06312*%
%ADD106R,0.05524X0.03950*%
%ADD107O,0.08674X0.03200*%
%ADD108O,0.08674X0.03202*%
%ADD109R,0.06312X0.05131*%
%ADD110R,0.09855X0.09855*%
D10*
X68920Y46994D02*
X71703Y49778D01*
X66136Y24603D02*
X68920Y27387D01*
X235836Y32110D02*
X238620Y34894D01*
Y54500D02*
X241404Y57284D01*
D39*
X0Y0D02*
X314961D01*
Y200787D01*
X0D02*
X314961D01*
X0Y0D02*
Y200787D01*
D41*
X20120Y36906D02*
Y38481D01*
X19332Y37694D02*
X20907D01*
D69*
X297047Y177165D02*
G03*
X297047Y177165I-984J0D01*
G01*
X273425Y19685D02*
G03*
X273425Y19685I-984J0D01*
G01*
D75*
X98463Y88894D02*
D03*
X91376D02*
D03*
X98463Y97094D02*
D03*
X91376D02*
D03*
X105276Y151494D02*
D03*
X112363D02*
D03*
X63363Y173894D02*
D03*
X56276D02*
D03*
D76*
X30120Y171140D02*
D03*
Y164447D02*
D03*
D80*
X124966Y163694D02*
D03*
X118273D02*
D03*
X137566D02*
D03*
X130873D02*
D03*
D90*
X38220Y163950D02*
D03*
Y171037D02*
D03*
X145420Y132737D02*
D03*
Y125650D02*
D03*
D91*
X296063Y177165D02*
D03*
X272441Y19685D02*
D03*
D92*
X36520Y108394D02*
D03*
Y118394D02*
D03*
Y128394D02*
D03*
Y138394D02*
D03*
X6520Y108394D02*
D03*
Y118394D02*
D03*
Y128394D02*
D03*
X148490Y48692D02*
D03*
X130420Y173494D02*
D03*
X120420D02*
D03*
X110420D02*
D03*
X100420D02*
D03*
X291820Y64494D02*
D03*
X291720Y34988D02*
D03*
Y46799D02*
D03*
D93*
X6520Y138394D02*
D03*
X140420Y173494D02*
D03*
D94*
X118962Y48594D02*
D03*
D95*
X83020Y144594D02*
D03*
Y138994D02*
D03*
D96*
X78232Y114794D02*
D03*
X59020D02*
D03*
X193420Y153894D02*
D03*
X212632D02*
D03*
D97*
X68920Y27309D02*
D03*
Y46994D02*
D03*
X291820Y86951D02*
D03*
Y106636D02*
D03*
X238620Y54579D02*
D03*
Y34894D02*
D03*
X19498Y175652D02*
D03*
Y157935D02*
D03*
D98*
X248620Y150810D02*
D03*
Y115377D02*
D03*
X262520Y115677D02*
D03*
Y151110D02*
D03*
D99*
X291820Y74494D02*
D03*
D100*
X39520Y87394D02*
D03*
Y67394D02*
D03*
Y47394D02*
D03*
D101*
Y27394D02*
D03*
D102*
X29341Y153014D02*
D03*
Y180573D02*
D03*
D103*
X148020Y93894D02*
D03*
Y114894D02*
D03*
X115157Y117126D02*
D03*
X89120Y174894D02*
D03*
X94120Y143994D02*
D03*
D104*
X25860Y108294D02*
D03*
X18380D02*
D03*
X25860Y117794D02*
D03*
X18380D02*
D03*
X26060Y128394D02*
D03*
X18579D02*
D03*
X25960Y138294D02*
D03*
X18480D02*
D03*
X95260Y75894D02*
D03*
X87779D02*
D03*
X24260Y89394D02*
D03*
X16780D02*
D03*
X24260Y63394D02*
D03*
X16780D02*
D03*
D105*
X54067Y91394D02*
D03*
X59973D02*
D03*
D106*
X24456Y80133D02*
D03*
Y72653D02*
D03*
X15795Y76393D02*
D03*
D107*
X53898Y78394D02*
D03*
Y73394D02*
D03*
X77520Y83394D02*
D03*
Y73394D02*
D03*
Y68394D02*
D03*
X53898D02*
D03*
D108*
X77520Y78394D02*
D03*
X53898Y83394D02*
D03*
D109*
X247420Y41241D02*
D03*
Y47146D02*
D03*
D110*
X20120Y28835D02*
D03*
Y46552D02*
D03*
M02*
