%FSLAX25Y25*%
%MOIN*%
G70*
G01*
G75*
G04 Layer_Physical_Order=2*
G04 Layer_Color=16711680*
%ADD10C,0.03937*%
%ADD11R,0.05315X0.06102*%
%ADD12O,0.07480X0.02362*%
%ADD13O,0.08268X0.01181*%
%ADD14O,0.01181X0.08268*%
%ADD15R,0.04528X0.10630*%
%ADD16R,0.04528X0.05709*%
%ADD17R,0.05118X0.03347*%
%ADD18O,0.23622X0.09843*%
G04:AMPARAMS|DCode=19|XSize=98.43mil|YSize=236.22mil|CornerRadius=0mil|HoleSize=0mil|Usage=FLASHONLY|Rotation=90.000|XOffset=0mil|YOffset=0mil|HoleType=Round|Shape=Octagon|*
%AMOCTAGOND19*
4,1,8,-0.11811,-0.02461,-0.11811,0.02461,-0.09350,0.04921,0.09350,0.04921,0.11811,0.02461,0.11811,-0.02461,0.09350,-0.04921,-0.09350,-0.04921,-0.11811,-0.02461,0.0*
%
%ADD19OCTAGOND19*%

%ADD20R,0.05118X0.05906*%
%ADD21R,0.03347X0.05118*%
%ADD22R,0.09213X0.08600*%
%ADD23R,0.02362X0.04528*%
%ADD24R,0.02362X0.07874*%
%ADD25O,0.02362X0.07874*%
%ADD26R,0.18898X0.20079*%
%ADD27R,0.03937X0.11811*%
%ADD28R,0.07874X0.01575*%
%ADD29R,0.01575X0.03937*%
%ADD30R,0.04724X0.03937*%
%ADD31R,0.05709X0.04528*%
%ADD32C,0.03937*%
%ADD33C,0.00800*%
%ADD34C,0.01500*%
%ADD35C,0.05000*%
%ADD36C,0.02000*%
%ADD37C,0.03000*%
%ADD38C,0.01200*%
%ADD39C,0.01000*%
%ADD40C,0.04000*%
%ADD41C,0.00394*%
%ADD42C,0.05906*%
%ADD43R,0.05906X0.05906*%
%ADD44C,0.04331*%
%ADD45O,0.05000X0.04000*%
%ADD46C,0.05000*%
%ADD47C,0.07087*%
%ADD48C,0.05315*%
%ADD49C,0.06299*%
%ADD50C,0.10630*%
%ADD51R,0.10630X0.10630*%
%ADD52C,0.08661*%
%ADD53C,0.02400*%
%ADD54C,0.03600*%
%ADD55R,0.03937X0.04724*%
%ADD56R,0.04331X0.05512*%
%ADD57R,0.04724X0.03150*%
%ADD58O,0.07874X0.02400*%
%ADD59O,0.07874X0.02402*%
%ADD60R,0.05512X0.04331*%
%ADD61R,0.09055X0.09055*%
G36*
X307087Y187573D02*
X306087Y187038D01*
X305977Y187112D01*
X305618Y187183D01*
Y185039D01*
Y182896D01*
X305977Y182967D01*
X306087Y183041D01*
X307087Y182506D01*
Y11811D01*
X278399D01*
X278060Y12811D01*
X278770Y13356D01*
X280192Y15210D01*
X280271Y15400D01*
X281311Y15297D01*
X281392Y14890D01*
X281878Y14162D01*
X282606Y13676D01*
X282965Y13604D01*
Y15748D01*
Y17892D01*
X282606Y17820D01*
X282111Y17490D01*
X281282Y17865D01*
X281166Y17969D01*
X281392Y19685D01*
X281086Y22002D01*
X280192Y24160D01*
X278770Y26014D01*
X276916Y27437D01*
X274758Y28331D01*
X272441Y28636D01*
X270124Y28331D01*
X267966Y27437D01*
X266112Y26014D01*
X264689Y24160D01*
X263795Y22002D01*
X263490Y19685D01*
X263795Y17368D01*
X264689Y15210D01*
X266112Y13356D01*
X266822Y12811D01*
X266483Y11811D01*
X3937D01*
Y104305D01*
X4819Y104776D01*
X4977Y104670D01*
X6020Y104463D01*
Y108394D01*
Y112324D01*
X4977Y112117D01*
X4819Y112011D01*
X3937Y112483D01*
Y114305D01*
X4819Y114776D01*
X4977Y114670D01*
X6020Y114463D01*
Y118394D01*
Y122324D01*
X4977Y122117D01*
X4819Y122011D01*
X3937Y122483D01*
Y124305D01*
X4819Y124776D01*
X4977Y124670D01*
X6020Y124463D01*
Y128394D01*
Y132324D01*
X4977Y132117D01*
X4819Y132011D01*
X3937Y132483D01*
Y134441D01*
X6020D01*
Y138394D01*
Y142347D01*
X3937D01*
Y188976D01*
X307087D01*
Y187573D01*
D02*
G37*
%LPC*%
G36*
X66429Y78240D02*
X64785D01*
X64857Y77882D01*
X65343Y77154D01*
X66071Y76668D01*
X66429Y76596D01*
Y78240D01*
D02*
G37*
G36*
X19157Y75893D02*
X16295D01*
Y73819D01*
X19157D01*
Y75893D01*
D02*
G37*
G36*
X69073Y78240D02*
X67429D01*
Y76596D01*
X67787Y76668D01*
X68515Y77154D01*
X69002Y77882D01*
X69073Y78240D01*
D02*
G37*
G36*
X66429Y80884D02*
X66071Y80813D01*
X65343Y80326D01*
X64857Y79599D01*
X64785Y79240D01*
X66429D01*
Y80884D01*
D02*
G37*
G36*
X19157Y78968D02*
X16295D01*
Y76893D01*
X19157D01*
Y78968D01*
D02*
G37*
G36*
X191120Y74303D02*
X189476D01*
Y72659D01*
X189835Y72731D01*
X190562Y73217D01*
X191049Y73945D01*
X191120Y74303D01*
D02*
G37*
G36*
X65120Y70637D02*
Y68994D01*
X66763D01*
X66692Y69352D01*
X66206Y70080D01*
X65478Y70566D01*
X65120Y70637D01*
D02*
G37*
G36*
X66763Y67994D02*
X65120D01*
Y66350D01*
X65478Y66421D01*
X66206Y66908D01*
X66692Y67635D01*
X66763Y67994D01*
D02*
G37*
G36*
X94760Y75394D02*
X92291D01*
Y72531D01*
X94760D01*
Y75394D01*
D02*
G37*
G36*
X188476Y74303D02*
X186833D01*
X186904Y73945D01*
X187390Y73217D01*
X188118Y72731D01*
X188476Y72659D01*
Y74303D01*
D02*
G37*
G36*
X98228Y75394D02*
X95760D01*
Y72531D01*
X98228D01*
Y75394D01*
D02*
G37*
G36*
X16280Y88894D02*
X13811D01*
Y86032D01*
X16280D01*
Y88894D01*
D02*
G37*
G36*
X175372Y86114D02*
X173728D01*
Y84470D01*
X174087Y84542D01*
X174814Y85028D01*
X175301Y85756D01*
X175372Y86114D01*
D02*
G37*
G36*
X19748Y88894D02*
X17279D01*
Y86032D01*
X19748D01*
Y88894D01*
D02*
G37*
G36*
X173728Y88758D02*
Y87114D01*
X175372D01*
X175301Y87473D01*
X174814Y88200D01*
X174087Y88687D01*
X173728Y88758D01*
D02*
G37*
G36*
X172728D02*
X172370Y88687D01*
X171642Y88200D01*
X171156Y87473D01*
X171085Y87114D01*
X172728D01*
Y88758D01*
D02*
G37*
G36*
Y86114D02*
X171085D01*
X171156Y85756D01*
X171642Y85028D01*
X172370Y84542D01*
X172728Y84470D01*
Y86114D01*
D02*
G37*
G36*
X153043Y82177D02*
X151400D01*
X151471Y81819D01*
X151957Y81091D01*
X152685Y80605D01*
X153043Y80533D01*
Y82177D01*
D02*
G37*
G36*
X67429Y80884D02*
Y79240D01*
X69073D01*
X69002Y79599D01*
X68515Y80326D01*
X67787Y80813D01*
X67429Y80884D01*
D02*
G37*
G36*
X305293Y82177D02*
X303650D01*
Y80533D01*
X304008Y80605D01*
X304736Y81091D01*
X305222Y81819D01*
X305293Y82177D01*
D02*
G37*
G36*
X303650Y84821D02*
Y83177D01*
X305293D01*
X305222Y83536D01*
X304736Y84263D01*
X304008Y84750D01*
X303650Y84821D01*
D02*
G37*
G36*
X302650D02*
X302291Y84750D01*
X301564Y84263D01*
X301077Y83536D01*
X301006Y83177D01*
X302650D01*
Y84821D01*
D02*
G37*
G36*
X141232Y54618D02*
X139589D01*
X139660Y54260D01*
X140146Y53532D01*
X140874Y53046D01*
X141232Y52974D01*
Y54618D01*
D02*
G37*
G36*
X305293D02*
X303650D01*
Y52974D01*
X304008Y53046D01*
X304736Y53532D01*
X305222Y54260D01*
X305293Y54618D01*
D02*
G37*
G36*
X143876D02*
X142232D01*
Y52974D01*
X142591Y53046D01*
X143318Y53532D01*
X143805Y54260D01*
X143876Y54618D01*
D02*
G37*
G36*
X142232Y57262D02*
Y55618D01*
X143876D01*
X143805Y55976D01*
X143318Y56704D01*
X142591Y57191D01*
X142232Y57262D01*
D02*
G37*
G36*
X141232D02*
X140874Y57191D01*
X140146Y56704D01*
X139660Y55976D01*
X139589Y55618D01*
X141232D01*
Y57262D01*
D02*
G37*
G36*
X39020Y53697D02*
X37871Y53546D01*
X36335Y52910D01*
X35016Y51898D01*
X34004Y50578D01*
X33740Y49943D01*
X25647D01*
Y52079D01*
X20620D01*
Y46552D01*
Y41024D01*
X25647D01*
Y44845D01*
X33740D01*
X34004Y44209D01*
X35016Y42890D01*
X36335Y41878D01*
X37871Y41241D01*
X39020Y41090D01*
Y47394D01*
Y53697D01*
D02*
G37*
G36*
X19620Y52079D02*
X14592D01*
Y47052D01*
X19620D01*
Y52079D01*
D02*
G37*
G36*
X118962Y51821D02*
X117727Y51575D01*
X116680Y50876D01*
X115981Y49829D01*
X115735Y48594D01*
X115981Y47359D01*
X116680Y46312D01*
X117727Y45612D01*
X118962Y45366D01*
X120197Y45612D01*
X121244Y46312D01*
X121944Y47359D01*
X122190Y48594D01*
X121944Y49829D01*
X121244Y50876D01*
X120197Y51575D01*
X118962Y51821D01*
D02*
G37*
G36*
X68420Y51526D02*
X67147Y51273D01*
X65644Y50269D01*
X64640Y48766D01*
X64387Y47494D01*
X68420D01*
Y51526D01*
D02*
G37*
G36*
X40020Y53697D02*
Y47894D01*
X45823D01*
X45672Y49042D01*
X45036Y50578D01*
X44024Y51898D01*
X42704Y52910D01*
X41168Y53546D01*
X40020Y53697D01*
D02*
G37*
G36*
X69420Y51526D02*
Y47494D01*
X73453D01*
X73199Y48766D01*
X72195Y50269D01*
X70692Y51273D01*
X69420Y51526D01*
D02*
G37*
G36*
X10018Y62492D02*
X8374D01*
Y60848D01*
X8732Y60920D01*
X9460Y61406D01*
X9946Y62134D01*
X10018Y62492D01*
D02*
G37*
G36*
X7374D02*
X5730D01*
X5802Y62134D01*
X6288Y61406D01*
X7016Y60920D01*
X7374Y60848D01*
Y62492D01*
D02*
G37*
G36*
Y65136D02*
X7016Y65065D01*
X6288Y64578D01*
X5802Y63850D01*
X5730Y63492D01*
X7374D01*
Y65136D01*
D02*
G37*
G36*
X53398Y67894D02*
X49017D01*
X49088Y67535D01*
X49575Y66808D01*
X50302Y66321D01*
X51161Y66151D01*
X53398D01*
Y67894D01*
D02*
G37*
G36*
X8374Y65136D02*
Y63492D01*
X10018D01*
X9946Y63850D01*
X9460Y64578D01*
X8732Y65065D01*
X8374Y65136D01*
D02*
G37*
G36*
X291820Y68524D02*
X290277Y68217D01*
X288970Y67343D01*
X288096Y66036D01*
X287790Y64494D01*
X288096Y62951D01*
X288970Y61644D01*
X290277Y60770D01*
X291820Y60464D01*
X293362Y60770D01*
X294670Y61644D01*
X295543Y62951D01*
X295850Y64494D01*
X295543Y66036D01*
X294670Y67343D01*
X293362Y68217D01*
X291820Y68524D01*
D02*
G37*
G36*
X153043Y58555D02*
X151400D01*
X151471Y58197D01*
X151957Y57469D01*
X152685Y56983D01*
X153043Y56911D01*
Y58555D01*
D02*
G37*
G36*
X303650Y57262D02*
Y55618D01*
X305293D01*
X305222Y55976D01*
X304736Y56704D01*
X304008Y57191D01*
X303650Y57262D01*
D02*
G37*
G36*
X155687Y58555D02*
X154043D01*
Y56911D01*
X154402Y56983D01*
X155129Y57469D01*
X155616Y58197D01*
X155687Y58555D01*
D02*
G37*
G36*
X154043Y61199D02*
Y59555D01*
X155687D01*
X155616Y59913D01*
X155129Y60641D01*
X154402Y61128D01*
X154043Y61199D01*
D02*
G37*
G36*
X153043D02*
X152685Y61128D01*
X151957Y60641D01*
X151471Y59913D01*
X151400Y59555D01*
X153043D01*
Y61199D01*
D02*
G37*
G36*
X63138Y90894D02*
X60473D01*
Y87638D01*
X63138D01*
Y90894D01*
D02*
G37*
G36*
X302650Y109736D02*
X301006D01*
X301077Y109378D01*
X301564Y108650D01*
X302291Y108164D01*
X302650Y108093D01*
Y109736D01*
D02*
G37*
G36*
X207193Y108443D02*
Y106799D01*
X208837D01*
X208765Y107158D01*
X208279Y107885D01*
X207551Y108372D01*
X207193Y108443D01*
D02*
G37*
G36*
X305293Y109736D02*
X303650D01*
Y108093D01*
X304008Y108164D01*
X304736Y108650D01*
X305222Y109378D01*
X305293Y109736D01*
D02*
G37*
G36*
X302650Y112380D02*
X302291Y112309D01*
X301564Y111822D01*
X301077Y111095D01*
X301006Y110736D01*
X302650D01*
Y112380D01*
D02*
G37*
G36*
X7020Y112324D02*
Y108894D01*
X10450D01*
X10243Y109936D01*
X9369Y111243D01*
X8062Y112117D01*
X7020Y112324D01*
D02*
G37*
G36*
X206193Y108443D02*
X205835Y108372D01*
X205107Y107885D01*
X204621Y107158D01*
X204549Y106799D01*
X206193D01*
Y108443D01*
D02*
G37*
G36*
X10450Y107894D02*
X7020D01*
Y104463D01*
X8062Y104670D01*
X9369Y105544D01*
X10243Y106851D01*
X10450Y107894D01*
D02*
G37*
G36*
X208837Y105799D02*
X207193D01*
Y104156D01*
X207551Y104227D01*
X208279Y104713D01*
X208765Y105441D01*
X208837Y105799D01*
D02*
G37*
G36*
X187508Y108443D02*
Y106799D01*
X189152D01*
X189080Y107158D01*
X188594Y107885D01*
X187866Y108372D01*
X187508Y108443D01*
D02*
G37*
G36*
X197350D02*
Y106799D01*
X198994D01*
X198923Y107158D01*
X198436Y107885D01*
X197709Y108372D01*
X197350Y108443D01*
D02*
G37*
G36*
X196350D02*
X195992Y108372D01*
X195264Y107885D01*
X194778Y107158D01*
X194707Y106799D01*
X196350D01*
Y108443D01*
D02*
G37*
G36*
X206193Y115642D02*
X204549D01*
X204621Y115283D01*
X205107Y114556D01*
X205835Y114069D01*
X206193Y113998D01*
Y115642D01*
D02*
G37*
G36*
X198994D02*
X197350D01*
Y113998D01*
X197709Y114069D01*
X198436Y114556D01*
X198923Y115283D01*
X198994Y115642D01*
D02*
G37*
G36*
X208837D02*
X207193D01*
Y113998D01*
X207551Y114069D01*
X208279Y114556D01*
X208765Y115283D01*
X208837Y115642D01*
D02*
G37*
G36*
X228522D02*
X226878D01*
Y113998D01*
X227236Y114069D01*
X227964Y114556D01*
X228450Y115283D01*
X228522Y115642D01*
D02*
G37*
G36*
X225878D02*
X224234D01*
X224306Y115283D01*
X224792Y114556D01*
X225520Y114069D01*
X225878Y113998D01*
Y115642D01*
D02*
G37*
G36*
X196350D02*
X194707D01*
X194778Y115283D01*
X195264Y114556D01*
X195992Y114069D01*
X196350Y113998D01*
Y115642D01*
D02*
G37*
G36*
X262520Y119406D02*
X261093Y119122D01*
X259883Y118314D01*
X259074Y117104D01*
X258791Y115677D01*
X259074Y114250D01*
X259883Y113040D01*
X261093Y112232D01*
X262520Y111948D01*
X263947Y112232D01*
X265157Y113040D01*
X265965Y114250D01*
X266249Y115677D01*
X265965Y117104D01*
X265157Y118314D01*
X263947Y119122D01*
X262520Y119406D01*
D02*
G37*
G36*
X303650Y112380D02*
Y110736D01*
X305293D01*
X305222Y111095D01*
X304736Y111822D01*
X304008Y112309D01*
X303650Y112380D01*
D02*
G37*
G36*
X48713Y113673D02*
X47069D01*
X47140Y113315D01*
X47627Y112587D01*
X48354Y112101D01*
X48713Y112030D01*
Y113673D01*
D02*
G37*
G36*
X189152Y115642D02*
X187508D01*
Y113998D01*
X187866Y114069D01*
X188594Y114556D01*
X189080Y115283D01*
X189152Y115642D01*
D02*
G37*
G36*
X51356Y113673D02*
X49713D01*
Y112030D01*
X50071Y112101D01*
X50799Y112587D01*
X51285Y113315D01*
X51356Y113673D01*
D02*
G37*
G36*
X71366Y92695D02*
Y91051D01*
X73010D01*
X72939Y91410D01*
X72452Y92137D01*
X71724Y92624D01*
X71366Y92695D01*
D02*
G37*
G36*
X70366D02*
X70008Y92624D01*
X69280Y92137D01*
X68794Y91410D01*
X68722Y91051D01*
X70366D01*
Y92695D01*
D02*
G37*
G36*
X63138Y95150D02*
X60473D01*
Y91894D01*
X63138D01*
Y95150D01*
D02*
G37*
G36*
X116317Y97925D02*
X114673D01*
Y96282D01*
X115032Y96353D01*
X115759Y96839D01*
X116246Y97567D01*
X116317Y97925D01*
D02*
G37*
G36*
X113673D02*
X112030D01*
X112101Y97567D01*
X112587Y96839D01*
X113315Y96353D01*
X113673Y96282D01*
Y97925D01*
D02*
G37*
G36*
X19748Y92756D02*
X17279D01*
Y89894D01*
X19748D01*
Y92756D01*
D02*
G37*
G36*
X134620Y89637D02*
Y87994D01*
X136263D01*
X136192Y88352D01*
X135706Y89080D01*
X134978Y89566D01*
X134620Y89637D01*
D02*
G37*
G36*
X133620D02*
X133261Y89566D01*
X132534Y89080D01*
X132047Y88352D01*
X131976Y87994D01*
X133620D01*
Y89637D01*
D02*
G37*
G36*
X70366Y90051D02*
X68722D01*
X68794Y89693D01*
X69280Y88965D01*
X70008Y88479D01*
X70366Y88407D01*
Y90051D01*
D02*
G37*
G36*
X16280Y92756D02*
X13811D01*
Y89894D01*
X16280D01*
Y92756D01*
D02*
G37*
G36*
X73010Y90051D02*
X71366D01*
Y88407D01*
X71724Y88479D01*
X72452Y88965D01*
X72939Y89693D01*
X73010Y90051D01*
D02*
G37*
G36*
X189152Y105799D02*
X187508D01*
Y104156D01*
X187866Y104227D01*
X188594Y104713D01*
X189080Y105441D01*
X189152Y105799D01*
D02*
G37*
G36*
X291820Y111268D02*
X290047Y110916D01*
X288544Y109912D01*
X287540Y108409D01*
X287187Y106636D01*
X287540Y104864D01*
X288544Y103361D01*
X290047Y102357D01*
X291820Y102004D01*
X293592Y102357D01*
X295095Y103361D01*
X296099Y104864D01*
X296452Y106636D01*
X296099Y108409D01*
X295095Y109912D01*
X293592Y110916D01*
X291820Y111268D01*
D02*
G37*
G36*
X196350Y105799D02*
X194707D01*
X194778Y105441D01*
X195264Y104713D01*
X195992Y104227D01*
X196350Y104156D01*
Y105799D01*
D02*
G37*
G36*
X206193D02*
X204549D01*
X204621Y105441D01*
X205107Y104713D01*
X205835Y104227D01*
X206193Y104156D01*
Y105799D01*
D02*
G37*
G36*
X198994D02*
X197350D01*
Y104156D01*
X197709Y104227D01*
X198436Y104713D01*
X198923Y105441D01*
X198994Y105799D01*
D02*
G37*
G36*
X157980Y100569D02*
Y98925D01*
X159624D01*
X159553Y99284D01*
X159066Y100011D01*
X158339Y100498D01*
X157980Y100569D01*
D02*
G37*
G36*
X159624Y97925D02*
X157980D01*
Y96282D01*
X158339Y96353D01*
X159066Y96839D01*
X159553Y97567D01*
X159624Y97925D01*
D02*
G37*
G36*
X156980D02*
X155337D01*
X155408Y97567D01*
X155894Y96839D01*
X156622Y96353D01*
X156980Y96282D01*
Y97925D01*
D02*
G37*
G36*
X113673Y100569D02*
X113315Y100498D01*
X112587Y100011D01*
X112101Y99284D01*
X112030Y98925D01*
X113673D01*
Y100569D01*
D02*
G37*
G36*
X156980D02*
X156622Y100498D01*
X155894Y100011D01*
X155408Y99284D01*
X155337Y98925D01*
X156980D01*
Y100569D01*
D02*
G37*
G36*
X114673D02*
Y98925D01*
X116317D01*
X116246Y99284D01*
X115759Y100011D01*
X115032Y100498D01*
X114673Y100569D01*
D02*
G37*
G36*
X148490Y52722D02*
X146947Y52416D01*
X145640Y51542D01*
X144766Y50234D01*
X144459Y48692D01*
X144766Y47150D01*
X145640Y45842D01*
X146947Y44969D01*
X148490Y44662D01*
X150032Y44969D01*
X151339Y45842D01*
X152213Y47150D01*
X152520Y48692D01*
X152213Y50234D01*
X151339Y51542D01*
X150032Y52416D01*
X148490Y52722D01*
D02*
G37*
G36*
X54618Y17892D02*
X54260Y17820D01*
X53532Y17334D01*
X53046Y16606D01*
X52974Y16248D01*
X54618D01*
Y17892D01*
D02*
G37*
G36*
X31996D02*
Y16248D01*
X33640D01*
X33568Y16606D01*
X33082Y17334D01*
X32355Y17820D01*
X31996Y17892D01*
D02*
G37*
G36*
X55618D02*
Y16248D01*
X57262D01*
X57191Y16606D01*
X56704Y17334D01*
X55976Y17820D01*
X55618Y17892D01*
D02*
G37*
G36*
X79240D02*
Y16248D01*
X80884D01*
X80813Y16606D01*
X80326Y17334D01*
X79599Y17820D01*
X79240Y17892D01*
D02*
G37*
G36*
X78240D02*
X77882Y17820D01*
X77154Y17334D01*
X76668Y16606D01*
X76596Y16248D01*
X78240D01*
Y17892D01*
D02*
G37*
G36*
X30996D02*
X30638Y17820D01*
X29910Y17334D01*
X29424Y16606D01*
X29352Y16248D01*
X30996D01*
Y17892D01*
D02*
G37*
G36*
X302650Y15248D02*
X301006D01*
X301077Y14890D01*
X301564Y14162D01*
X302291Y13676D01*
X302650Y13604D01*
Y15248D01*
D02*
G37*
G36*
X285608D02*
X283965D01*
Y13604D01*
X284323Y13676D01*
X285051Y14162D01*
X285537Y14890D01*
X285608Y15248D01*
D02*
G37*
G36*
X305293D02*
X303650D01*
Y13604D01*
X304008Y13676D01*
X304736Y14162D01*
X305222Y14890D01*
X305293Y15248D01*
D02*
G37*
G36*
X8374Y17892D02*
Y16248D01*
X10018D01*
X9946Y16606D01*
X9460Y17334D01*
X8732Y17820D01*
X8374Y17892D01*
D02*
G37*
G36*
X7374D02*
X7016Y17820D01*
X6288Y17334D01*
X5802Y16606D01*
X5730Y16248D01*
X7374D01*
Y17892D01*
D02*
G37*
G36*
X173728D02*
Y16248D01*
X175372D01*
X175301Y16606D01*
X174814Y17334D01*
X174087Y17820D01*
X173728Y17892D01*
D02*
G37*
G36*
X172728D02*
X172370Y17820D01*
X171642Y17334D01*
X171156Y16606D01*
X171085Y16248D01*
X172728D01*
Y17892D01*
D02*
G37*
G36*
X216035D02*
X215677Y17820D01*
X214949Y17334D01*
X214463Y16606D01*
X214392Y16248D01*
X216035D01*
Y17892D01*
D02*
G37*
G36*
X243595D02*
X243236Y17820D01*
X242508Y17334D01*
X242022Y16606D01*
X241951Y16248D01*
X243595D01*
Y17892D01*
D02*
G37*
G36*
X217035D02*
Y16248D01*
X218679D01*
X218608Y16606D01*
X218122Y17334D01*
X217394Y17820D01*
X217035Y17892D01*
D02*
G37*
G36*
X146169D02*
Y16248D01*
X147813D01*
X147742Y16606D01*
X147255Y17334D01*
X146528Y17820D01*
X146169Y17892D01*
D02*
G37*
G36*
X98925D02*
Y16248D01*
X100569D01*
X100498Y16606D01*
X100011Y17334D01*
X99284Y17820D01*
X98925Y17892D01*
D02*
G37*
G36*
X97925D02*
X97567Y17820D01*
X96839Y17334D01*
X96353Y16606D01*
X96282Y16248D01*
X97925D01*
Y17892D01*
D02*
G37*
G36*
X121547D02*
X121189Y17820D01*
X120461Y17334D01*
X119975Y16606D01*
X119904Y16248D01*
X121547D01*
Y17892D01*
D02*
G37*
G36*
X145169D02*
X144811Y17820D01*
X144083Y17334D01*
X143597Y16606D01*
X143526Y16248D01*
X145169D01*
Y17892D01*
D02*
G37*
G36*
X122547D02*
Y16248D01*
X124191D01*
X124120Y16606D01*
X123633Y17334D01*
X122906Y17820D01*
X122547Y17892D01*
D02*
G37*
G36*
X80884Y15248D02*
X79240D01*
Y13604D01*
X79599Y13676D01*
X80326Y14162D01*
X80813Y14890D01*
X80884Y15248D01*
D02*
G37*
G36*
X78240D02*
X76596D01*
X76668Y14890D01*
X77154Y14162D01*
X77882Y13676D01*
X78240Y13604D01*
Y15248D01*
D02*
G37*
G36*
X97925D02*
X96282D01*
X96353Y14890D01*
X96839Y14162D01*
X97567Y13676D01*
X97925Y13604D01*
Y15248D01*
D02*
G37*
G36*
X121547D02*
X119904D01*
X119975Y14890D01*
X120461Y14162D01*
X121189Y13676D01*
X121547Y13604D01*
Y15248D01*
D02*
G37*
G36*
X100569D02*
X98925D01*
Y13604D01*
X99284Y13676D01*
X100011Y14162D01*
X100498Y14890D01*
X100569Y15248D01*
D02*
G37*
G36*
X57262D02*
X55618D01*
Y13604D01*
X55976Y13676D01*
X56704Y14162D01*
X57191Y14890D01*
X57262Y15248D01*
D02*
G37*
G36*
X10018D02*
X8374D01*
Y13604D01*
X8732Y13676D01*
X9460Y14162D01*
X9946Y14890D01*
X10018Y15248D01*
D02*
G37*
G36*
X7374D02*
X5730D01*
X5802Y14890D01*
X6288Y14162D01*
X7016Y13676D01*
X7374Y13604D01*
Y15248D01*
D02*
G37*
G36*
X30996D02*
X29352D01*
X29424Y14890D01*
X29910Y14162D01*
X30638Y13676D01*
X30996Y13604D01*
Y15248D01*
D02*
G37*
G36*
X54618D02*
X52974D01*
X53046Y14890D01*
X53532Y14162D01*
X54260Y13676D01*
X54618Y13604D01*
Y15248D01*
D02*
G37*
G36*
X33640D02*
X31996D01*
Y13604D01*
X32355Y13676D01*
X33082Y14162D01*
X33568Y14890D01*
X33640Y15248D01*
D02*
G37*
G36*
X243595D02*
X241951D01*
X242022Y14890D01*
X242508Y14162D01*
X243236Y13676D01*
X243595Y13604D01*
Y15248D01*
D02*
G37*
G36*
X218679D02*
X217035D01*
Y13604D01*
X217394Y13676D01*
X218122Y14162D01*
X218608Y14890D01*
X218679Y15248D01*
D02*
G37*
G36*
X246238D02*
X244595D01*
Y13604D01*
X244953Y13676D01*
X245681Y14162D01*
X246167Y14890D01*
X246238Y15248D01*
D02*
G37*
G36*
X259624D02*
X257980D01*
Y13604D01*
X258339Y13676D01*
X259066Y14162D01*
X259553Y14890D01*
X259624Y15248D01*
D02*
G37*
G36*
X256980D02*
X255337D01*
X255408Y14890D01*
X255894Y14162D01*
X256622Y13676D01*
X256980Y13604D01*
Y15248D01*
D02*
G37*
G36*
X216035D02*
X214392D01*
X214463Y14890D01*
X214949Y14162D01*
X215677Y13676D01*
X216035Y13604D01*
Y15248D01*
D02*
G37*
G36*
X145169D02*
X143526D01*
X143597Y14890D01*
X144083Y14162D01*
X144811Y13676D01*
X145169Y13604D01*
Y15248D01*
D02*
G37*
G36*
X124191D02*
X122547D01*
Y13604D01*
X122906Y13676D01*
X123633Y14162D01*
X124120Y14890D01*
X124191Y15248D01*
D02*
G37*
G36*
X147813D02*
X146169D01*
Y13604D01*
X146528Y13676D01*
X147255Y14162D01*
X147742Y14890D01*
X147813Y15248D01*
D02*
G37*
G36*
X175372D02*
X173728D01*
Y13604D01*
X174087Y13676D01*
X174814Y14162D01*
X175301Y14890D01*
X175372Y15248D01*
D02*
G37*
G36*
X172728D02*
X171085D01*
X171156Y14890D01*
X171642Y14162D01*
X172370Y13676D01*
X172728Y13604D01*
Y15248D01*
D02*
G37*
G36*
X244595Y17892D02*
Y16248D01*
X246238D01*
X246167Y16606D01*
X245681Y17334D01*
X244953Y17820D01*
X244595Y17892D01*
D02*
G37*
G36*
X58555Y41514D02*
X58197Y41442D01*
X57469Y40956D01*
X56983Y40229D01*
X56911Y39870D01*
X58555D01*
Y41514D01*
D02*
G37*
G36*
X251176Y40741D02*
X247920D01*
Y38076D01*
X251176D01*
Y40741D01*
D02*
G37*
G36*
X59555Y41514D02*
Y39870D01*
X61199D01*
X61128Y40229D01*
X60641Y40956D01*
X59913Y41442D01*
X59555Y41514D01*
D02*
G37*
G36*
X83177D02*
Y39870D01*
X84821D01*
X84750Y40229D01*
X84263Y40956D01*
X83536Y41442D01*
X83177Y41514D01*
D02*
G37*
G36*
X82177D02*
X81819Y41442D01*
X81091Y40956D01*
X80605Y40229D01*
X80533Y39870D01*
X82177D01*
Y41514D01*
D02*
G37*
G36*
X100220Y40149D02*
Y37894D01*
X102475D01*
X102357Y38486D01*
X101738Y39412D01*
X100812Y40031D01*
X100220Y40149D01*
D02*
G37*
G36*
X84821Y38870D02*
X83177D01*
Y37226D01*
X83536Y37298D01*
X84263Y37784D01*
X84750Y38512D01*
X84821Y38870D01*
D02*
G37*
G36*
X82177D02*
X80533D01*
X80605Y38512D01*
X81091Y37784D01*
X81819Y37298D01*
X82177Y37226D01*
Y38870D01*
D02*
G37*
G36*
X125484D02*
X123841D01*
X123912Y38512D01*
X124398Y37784D01*
X125126Y37298D01*
X125484Y37226D01*
Y38870D01*
D02*
G37*
G36*
X99220Y40149D02*
X98627Y40031D01*
X97701Y39412D01*
X97082Y38486D01*
X96964Y37894D01*
X99220D01*
Y40149D01*
D02*
G37*
G36*
X128128Y38870D02*
X126484D01*
Y37226D01*
X126843Y37298D01*
X127570Y37784D01*
X128057Y38512D01*
X128128Y38870D01*
D02*
G37*
G36*
X73453Y46494D02*
X69420D01*
Y42461D01*
X70692Y42714D01*
X72195Y43718D01*
X73199Y45221D01*
X73453Y46494D01*
D02*
G37*
G36*
X68420D02*
X64387D01*
X64640Y45221D01*
X65644Y43718D01*
X67147Y42714D01*
X68420Y42461D01*
Y46494D01*
D02*
G37*
G36*
X291720Y50829D02*
X290177Y50523D01*
X288870Y49649D01*
X287996Y48342D01*
X287689Y46799D01*
X287996Y45257D01*
X288870Y43949D01*
X290177Y43076D01*
X291720Y42769D01*
X293262Y43076D01*
X294569Y43949D01*
X295443Y45257D01*
X295750Y46799D01*
X295443Y48342D01*
X294569Y49649D01*
X293262Y50523D01*
X291720Y50829D01*
D02*
G37*
G36*
X8374Y45451D02*
Y43807D01*
X10018D01*
X9946Y44166D01*
X9460Y44893D01*
X8732Y45379D01*
X8374Y45451D01*
D02*
G37*
G36*
X7374D02*
X7016Y45379D01*
X6288Y44893D01*
X5802Y44166D01*
X5730Y43807D01*
X7374D01*
Y45451D01*
D02*
G37*
G36*
X10018Y42807D02*
X8374D01*
Y41164D01*
X8732Y41235D01*
X9460Y41721D01*
X9946Y42449D01*
X10018Y42807D01*
D02*
G37*
G36*
X126484Y41514D02*
Y39870D01*
X128128D01*
X128057Y40229D01*
X127570Y40956D01*
X126843Y41442D01*
X126484Y41514D01*
D02*
G37*
G36*
X125484D02*
X125126Y41442D01*
X124398Y40956D01*
X123912Y40229D01*
X123841Y39870D01*
X125484D01*
Y41514D01*
D02*
G37*
G36*
X19620Y46052D02*
X14592D01*
Y41024D01*
X19620D01*
Y46052D01*
D02*
G37*
G36*
X7374Y42807D02*
X5730D01*
X5802Y42449D01*
X6288Y41721D01*
X7016Y41235D01*
X7374Y41164D01*
Y42807D01*
D02*
G37*
G36*
X45823Y46894D02*
X40020D01*
Y41090D01*
X41168Y41241D01*
X42704Y41878D01*
X44024Y42890D01*
X45036Y44209D01*
X45672Y45745D01*
X45823Y46894D01*
D02*
G37*
G36*
X185920Y26394D02*
X183664D01*
X183782Y25801D01*
X184401Y24875D01*
X185327Y24256D01*
X185920Y24138D01*
Y26394D01*
D02*
G37*
G36*
X68920Y31941D02*
X67147Y31588D01*
X65644Y30584D01*
X64640Y29081D01*
X64287Y27309D01*
X64640Y25536D01*
X65644Y24033D01*
X67147Y23029D01*
X68920Y22676D01*
X70692Y23029D01*
X72195Y24033D01*
X73199Y25536D01*
X73552Y27309D01*
X73199Y29081D01*
X72195Y30584D01*
X70692Y31588D01*
X68920Y31941D01*
D02*
G37*
G36*
X189175Y26394D02*
X186920D01*
Y24138D01*
X187512Y24256D01*
X188438Y24875D01*
X189057Y25801D01*
X189175Y26394D01*
D02*
G37*
G36*
X10018Y27059D02*
X8374D01*
Y25415D01*
X8732Y25487D01*
X9460Y25973D01*
X9946Y26701D01*
X10018Y27059D01*
D02*
G37*
G36*
X7374D02*
X5730D01*
X5802Y26701D01*
X6288Y25973D01*
X7016Y25487D01*
X7374Y25415D01*
Y27059D01*
D02*
G37*
G36*
X25647Y34363D02*
X14592D01*
Y23308D01*
X25647D01*
Y26287D01*
X33205D01*
Y21079D01*
X45835D01*
Y33709D01*
X33205D01*
Y31384D01*
X25647D01*
Y34363D01*
D02*
G37*
G36*
X257980Y17892D02*
Y16248D01*
X259624D01*
X259553Y16606D01*
X259066Y17334D01*
X258339Y17820D01*
X257980Y17892D01*
D02*
G37*
G36*
X256980D02*
X256622Y17820D01*
X255894Y17334D01*
X255408Y16606D01*
X255337Y16248D01*
X256980D01*
Y17892D01*
D02*
G37*
G36*
X283965D02*
Y16248D01*
X285608D01*
X285537Y16606D01*
X285051Y17334D01*
X284323Y17820D01*
X283965Y17892D01*
D02*
G37*
G36*
X303650D02*
Y16248D01*
X305293D01*
X305222Y16606D01*
X304736Y17334D01*
X304008Y17820D01*
X303650Y17892D01*
D02*
G37*
G36*
X302650D02*
X302291Y17820D01*
X301564Y17334D01*
X301077Y16606D01*
X301006Y16248D01*
X302650D01*
Y17892D01*
D02*
G37*
G36*
X102475Y36894D02*
X100220D01*
Y34638D01*
X100812Y34756D01*
X101738Y35375D01*
X102357Y36301D01*
X102475Y36894D01*
D02*
G37*
G36*
X99220D02*
X96964D01*
X97082Y36301D01*
X97701Y35375D01*
X98627Y34756D01*
X99220Y34638D01*
Y36894D01*
D02*
G37*
G36*
X238120Y39426D02*
X236847Y39173D01*
X235344Y38169D01*
X234340Y36666D01*
X234087Y35394D01*
X238120D01*
Y39426D01*
D02*
G37*
G36*
X61199Y38870D02*
X59555D01*
Y37226D01*
X59913Y37298D01*
X60641Y37784D01*
X61128Y38512D01*
X61199Y38870D01*
D02*
G37*
G36*
X58555D02*
X56911D01*
X56983Y38512D01*
X57469Y37784D01*
X58197Y37298D01*
X58555Y37226D01*
Y38870D01*
D02*
G37*
G36*
X243152Y34394D02*
X239120D01*
Y30361D01*
X240392Y30614D01*
X241895Y31618D01*
X242899Y33121D01*
X243152Y34394D01*
D02*
G37*
G36*
X186920Y29649D02*
Y27394D01*
X189175D01*
X189057Y27986D01*
X188438Y28912D01*
X187512Y29531D01*
X186920Y29649D01*
D02*
G37*
G36*
X185920D02*
X185327Y29531D01*
X184401Y28912D01*
X183782Y27986D01*
X183664Y27394D01*
X185920D01*
Y29649D01*
D02*
G37*
G36*
X7374Y29703D02*
X7016Y29631D01*
X6288Y29145D01*
X5802Y28418D01*
X5730Y28059D01*
X7374D01*
Y29703D01*
D02*
G37*
G36*
X238120Y34394D02*
X234087D01*
X234340Y33121D01*
X235344Y31618D01*
X236847Y30614D01*
X238120Y30361D01*
Y34394D01*
D02*
G37*
G36*
X8374Y29703D02*
Y28059D01*
X10018D01*
X9946Y28418D01*
X9460Y29145D01*
X8732Y29631D01*
X8374Y29703D01*
D02*
G37*
G36*
X10343Y177340D02*
Y175697D01*
X11986D01*
X11915Y176055D01*
X11429Y176783D01*
X10701Y177269D01*
X10343Y177340D01*
D02*
G37*
G36*
X9342D02*
X8984Y177269D01*
X8256Y176783D01*
X7770Y176055D01*
X7699Y175697D01*
X9342D01*
Y177340D01*
D02*
G37*
G36*
X68020Y182337D02*
X67161Y182166D01*
X66730Y181878D01*
X64720D01*
X64720Y181878D01*
X64037Y181742D01*
X63458Y181355D01*
X62101Y179999D01*
X61715Y179420D01*
X61579Y178737D01*
Y178455D01*
X60872Y177748D01*
X60540D01*
X60099Y177748D01*
X59820D01*
X59540D01*
X59099Y177748D01*
X56776D01*
Y173894D01*
Y170039D01*
X59099D01*
X59540Y170039D01*
X59820D01*
X60099D01*
X60540Y170039D01*
X61579D01*
Y159343D01*
X49720D01*
X48744Y159149D01*
X47917Y158596D01*
X36864Y147543D01*
X32557D01*
X32270Y148543D01*
X33143Y149212D01*
X33997Y150326D01*
X34534Y151623D01*
X34652Y152514D01*
X24030D01*
X24148Y151623D01*
X24685Y150326D01*
X25539Y149212D01*
X26412Y148543D01*
X26125Y147543D01*
X23105D01*
X22690Y147820D01*
X21520Y148053D01*
X21073Y147964D01*
X15582Y153455D01*
X15665Y153832D01*
X16788Y154282D01*
X17726Y153656D01*
X19498Y153303D01*
X21271Y153656D01*
X22774Y154660D01*
X23778Y156163D01*
X24131Y157935D01*
X23778Y159708D01*
X23583Y160001D01*
X25682Y162100D01*
X26561Y161774D01*
Y161774D01*
X26561Y161774D01*
X33679D01*
X34365Y161058D01*
Y160687D01*
X42074D01*
Y166773D01*
X42074Y167214D01*
Y167494D01*
Y167773D01*
X42074Y168214D01*
Y170537D01*
X38220D01*
Y171037D01*
X37720D01*
Y174301D01*
X34477D01*
X34377Y174301D01*
X34365D01*
X33567Y173813D01*
X33365Y173813D01*
X26561D01*
Y172143D01*
X23821D01*
X23286Y173143D01*
X23778Y173879D01*
X24131Y175652D01*
X23778Y177425D01*
X22774Y178928D01*
X21271Y179932D01*
X19498Y180284D01*
X17726Y179932D01*
X16223Y178928D01*
X15219Y177425D01*
X14866Y175652D01*
X15219Y173879D01*
X16223Y172376D01*
X17567Y171478D01*
X17898Y170396D01*
X13064Y165561D01*
X11979Y165891D01*
X11915Y166213D01*
X11429Y166940D01*
X10701Y167427D01*
X10343Y167498D01*
Y165354D01*
Y163211D01*
X10635Y163269D01*
X10726Y163267D01*
X11635Y162704D01*
Y158162D01*
X10726Y157599D01*
X10635Y157597D01*
X10343Y157655D01*
Y155512D01*
Y153368D01*
X10635Y153426D01*
X10743Y153424D01*
X11023Y153320D01*
X11676Y152888D01*
X11771Y152411D01*
X12158Y151832D01*
X17595Y146395D01*
Y145395D01*
X16217Y144016D01*
X15554Y143024D01*
X15321Y141853D01*
Y117794D01*
Y108294D01*
X15411Y107840D01*
Y104931D01*
X15411Y104931D01*
X15411D01*
X15249Y103947D01*
X9458Y98155D01*
X9071Y97576D01*
X8935Y96894D01*
Y69454D01*
X9071Y68771D01*
X9458Y68192D01*
X13811Y63839D01*
Y60031D01*
X19748D01*
Y66756D01*
X15941D01*
X12504Y70193D01*
Y73819D01*
X15295D01*
Y76393D01*
Y78968D01*
X12504D01*
Y96155D01*
X18370Y102020D01*
X24758Y95632D01*
X24758Y95632D01*
X25047Y95439D01*
X25337Y95245D01*
X26020Y95109D01*
X26020Y95109D01*
X43881D01*
X48858Y90132D01*
X49437Y89745D01*
X50120Y89609D01*
X50902Y89021D01*
Y87638D01*
X52283D01*
Y85638D01*
X51161D01*
X50303Y85467D01*
X49575Y84980D01*
X49088Y84252D01*
X48917Y83394D01*
X49088Y82535D01*
X49575Y81807D01*
X50112Y81448D01*
X50190Y81046D01*
X49987Y80733D01*
X48857Y80579D01*
X45092Y84345D01*
X45672Y85745D01*
X45889Y87394D01*
X45672Y89042D01*
X45036Y90578D01*
X44024Y91898D01*
X42704Y92910D01*
X41168Y93546D01*
X39520Y93763D01*
X37871Y93546D01*
X36335Y92910D01*
X35016Y91898D01*
X34004Y90578D01*
X33424Y89178D01*
X32259D01*
X30781Y90655D01*
X30202Y91042D01*
X29520Y91178D01*
X27228D01*
Y92756D01*
X21291D01*
Y86032D01*
X22476D01*
Y82708D01*
X21094D01*
Y77559D01*
X27819D01*
Y82708D01*
X26044D01*
Y86032D01*
X27228D01*
Y87609D01*
X28781D01*
X30258Y86132D01*
X30258Y86132D01*
X30547Y85939D01*
X30837Y85745D01*
X31520Y85609D01*
X31520Y85609D01*
X33424D01*
X34004Y84209D01*
X35016Y82890D01*
X36335Y81878D01*
X37871Y81241D01*
X39520Y81024D01*
X41168Y81241D01*
X42569Y81821D01*
X47258Y77132D01*
X47837Y76745D01*
X48520Y76609D01*
X49502D01*
X49865Y76043D01*
X50000Y75764D01*
X49461Y75178D01*
X45520D01*
X44837Y75042D01*
X44258Y74655D01*
X42569Y72966D01*
X41168Y73546D01*
X39520Y73763D01*
X37871Y73546D01*
X36335Y72910D01*
X35016Y71898D01*
X34004Y70578D01*
X33415Y69157D01*
X32837Y69042D01*
X32258Y68655D01*
X32258Y68655D01*
X28781Y65178D01*
X27228D01*
Y66756D01*
X26241D01*
Y70078D01*
X27819D01*
Y75228D01*
X21094D01*
Y70078D01*
X22672D01*
Y66756D01*
X21291D01*
Y60031D01*
X27228D01*
Y61609D01*
X29520D01*
X30202Y61745D01*
X30781Y62132D01*
X33044Y64395D01*
X34120Y64057D01*
X35016Y62890D01*
X36335Y61878D01*
X37871Y61241D01*
X39520Y61024D01*
X41168Y61241D01*
X42704Y61878D01*
X44024Y62890D01*
X45036Y64209D01*
X45672Y65745D01*
X45889Y67394D01*
X45672Y69042D01*
X45092Y70443D01*
X46259Y71609D01*
X49627D01*
X50190Y70742D01*
X50113Y70339D01*
X49575Y69980D01*
X49088Y69252D01*
X49017Y68894D01*
X53898D01*
Y68394D01*
X54398D01*
Y66151D01*
X56635D01*
X57493Y66321D01*
X58221Y66808D01*
X58327Y66966D01*
X62994D01*
X63034Y66908D01*
X63761Y66421D01*
X64120Y66350D01*
Y68494D01*
Y70637D01*
X63761Y70566D01*
X63034Y70080D01*
X62861Y69821D01*
X58327D01*
X58221Y69980D01*
X57683Y70339D01*
X57593Y70803D01*
Y70984D01*
X57683Y71448D01*
X58221Y71808D01*
X58707Y72535D01*
X58878Y73394D01*
X58707Y74252D01*
X58221Y74980D01*
X57683Y75339D01*
X57593Y75803D01*
Y75984D01*
X57683Y76448D01*
X58221Y76808D01*
X58707Y77535D01*
X58878Y78394D01*
X58707Y79252D01*
X58221Y79980D01*
X57683Y80339D01*
X57594Y80800D01*
X57594Y80986D01*
X57683Y81448D01*
X58221Y81807D01*
X58707Y82535D01*
X58878Y83394D01*
X58707Y84252D01*
X58221Y84980D01*
X57493Y85467D01*
X56634Y85638D01*
X55851D01*
Y87638D01*
X59473D01*
Y91394D01*
Y95150D01*
X50902D01*
Y94549D01*
X49902Y94135D01*
X45881Y98155D01*
X45303Y98542D01*
X44620Y98678D01*
X26759D01*
X21468Y103969D01*
X21348Y104931D01*
X21348D01*
X21348Y104931D01*
Y107840D01*
X21438Y108294D01*
Y117794D01*
Y125031D01*
X21548D01*
Y131756D01*
X21438D01*
Y134932D01*
X21448D01*
Y140376D01*
X22039Y140842D01*
X22991Y140420D01*
Y134932D01*
X28928D01*
Y136966D01*
X32773D01*
X32796Y136851D01*
X33670Y135544D01*
X34977Y134670D01*
X36520Y134363D01*
X38062Y134670D01*
X38159Y134735D01*
X42074Y130821D01*
X41659Y129821D01*
X40266D01*
X40243Y129936D01*
X39369Y131244D01*
X38062Y132117D01*
X36520Y132424D01*
X34977Y132117D01*
X33670Y131244D01*
X32796Y129936D01*
X32773Y129821D01*
X29028D01*
Y131756D01*
X23091D01*
Y125031D01*
X29028D01*
Y126966D01*
X32773D01*
X32796Y126851D01*
X33670Y125544D01*
X34977Y124670D01*
X36520Y124364D01*
X38062Y124670D01*
X39369Y125544D01*
X40243Y126851D01*
X40266Y126966D01*
X48964D01*
X49062Y125966D01*
X49061Y125966D01*
X48334Y125480D01*
X47847Y124752D01*
X47677Y123894D01*
X47847Y123035D01*
X48124Y122621D01*
X47712Y121653D01*
X47681Y121621D01*
X38804D01*
X38062Y122117D01*
X36520Y122424D01*
X34977Y122117D01*
X33670Y121244D01*
X32796Y119936D01*
X32654Y119221D01*
X28828D01*
Y121156D01*
X22891D01*
Y114432D01*
X28828D01*
Y116366D01*
X33120D01*
X33670Y115544D01*
X34977Y114670D01*
X36520Y114364D01*
X38062Y114670D01*
X39369Y115544D01*
X40243Y116851D01*
X40550Y118394D01*
X40856Y118766D01*
X56865D01*
X57169Y117766D01*
X56496Y117317D01*
X55723Y116159D01*
X55451Y114794D01*
X55723Y113428D01*
X56496Y112270D01*
X57654Y111497D01*
X59020Y111225D01*
X60385Y111497D01*
X61543Y112270D01*
X62317Y113428D01*
X62588Y114794D01*
X62317Y116159D01*
X61543Y117317D01*
X60871Y117766D01*
X61174Y118766D01*
X76078D01*
X76381Y117766D01*
X75709Y117317D01*
X74935Y116159D01*
X74664Y114794D01*
X74935Y113428D01*
X75709Y112270D01*
X76867Y111497D01*
X78232Y111225D01*
X79598Y111497D01*
X80756Y112270D01*
X81529Y113428D01*
X81801Y114794D01*
X81529Y116159D01*
X80756Y117317D01*
X80083Y117766D01*
X80387Y118766D01*
X88659D01*
X89074Y117766D01*
X81128Y109821D01*
X40266D01*
X40243Y109936D01*
X39369Y111243D01*
X38062Y112117D01*
X36520Y112424D01*
X34977Y112117D01*
X33670Y111243D01*
X32796Y109936D01*
X32773Y109821D01*
X28828D01*
Y111656D01*
X22891D01*
Y104931D01*
X28828D01*
Y106966D01*
X32773D01*
X32796Y106851D01*
X33670Y105544D01*
X34977Y104670D01*
X36520Y104364D01*
X38062Y104670D01*
X39369Y105544D01*
X40243Y106851D01*
X40266Y106966D01*
X81720D01*
X81720Y106966D01*
X82266Y107075D01*
X82729Y107384D01*
X91211Y115866D01*
X92659D01*
X93074Y114866D01*
X81410Y103203D01*
X81101Y102740D01*
X80992Y102194D01*
X80992Y102194D01*
Y91986D01*
X80834Y91880D01*
X80347Y91152D01*
X80177Y90294D01*
X80347Y89435D01*
X80834Y88708D01*
X81561Y88221D01*
X82420Y88051D01*
X83278Y88221D01*
X84006Y88708D01*
X84492Y89435D01*
X84663Y90294D01*
X84492Y91152D01*
X84006Y91880D01*
X83847Y91986D01*
Y101602D01*
X88734Y106490D01*
X89906Y106247D01*
X90134Y105908D01*
X90292Y105802D01*
Y100948D01*
X88113D01*
Y93239D01*
X88113D01*
X88113Y93239D01*
Y92748D01*
X88113D01*
X88113Y92748D01*
Y85821D01*
X88113Y85039D01*
X87203Y84821D01*
X87203Y84821D01*
X81949D01*
X81843Y84980D01*
X81115Y85466D01*
X80257Y85637D01*
X74783D01*
X73924Y85466D01*
X73197Y84980D01*
X72710Y84252D01*
X72540Y83394D01*
X72710Y82535D01*
X73197Y81808D01*
X73734Y81449D01*
X73824Y80987D01*
X73824Y80802D01*
X73734Y80339D01*
X73197Y79980D01*
X72710Y79252D01*
X72540Y78394D01*
X72710Y77535D01*
X73197Y76807D01*
X73734Y76448D01*
X73824Y75986D01*
X73824Y75800D01*
X73734Y75339D01*
X73197Y74980D01*
X72710Y74252D01*
X72540Y73394D01*
X72710Y72535D01*
X73197Y71808D01*
X73735Y71448D01*
X73824Y70984D01*
Y70803D01*
X73735Y70339D01*
X73197Y69980D01*
X72710Y69252D01*
X72540Y68394D01*
X72710Y67535D01*
X73197Y66808D01*
X73924Y66321D01*
X74783Y66151D01*
X80257D01*
X81115Y66321D01*
X81843Y66808D01*
X81949Y66966D01*
X138128D01*
X138234Y66808D01*
X138961Y66321D01*
X139820Y66151D01*
X140678Y66321D01*
X141406Y66808D01*
X141892Y67535D01*
X142063Y68394D01*
X141892Y69252D01*
X141406Y69980D01*
X140678Y70466D01*
X139820Y70637D01*
X138961Y70466D01*
X138234Y69980D01*
X138128Y69821D01*
X81949D01*
X81843Y69980D01*
X81305Y70339D01*
X81215Y70803D01*
Y70984D01*
X81305Y71448D01*
X81843Y71808D01*
X82329Y72535D01*
X82500Y73394D01*
X83087Y74109D01*
X84811D01*
Y72531D01*
X90748D01*
Y78895D01*
X91520Y79333D01*
X92291Y78895D01*
Y78566D01*
Y76394D01*
X98228D01*
Y78566D01*
X98228Y79256D01*
X99100Y79566D01*
X99100D01*
X145327D01*
X145434Y79408D01*
X146161Y78921D01*
X147020Y78751D01*
X147878Y78921D01*
X148606Y79408D01*
X149092Y80135D01*
X149263Y80994D01*
X149092Y81852D01*
X148606Y82580D01*
X147878Y83066D01*
X147020Y83237D01*
X146161Y83066D01*
X145949Y82924D01*
X145049Y83526D01*
X145063Y83594D01*
X144892Y84452D01*
X144406Y85180D01*
X143678Y85666D01*
X142820Y85837D01*
X141961Y85666D01*
X141234Y85180D01*
X140994Y84821D01*
X135880D01*
X135576Y85821D01*
X135706Y85908D01*
X136192Y86635D01*
X136263Y86994D01*
X131976D01*
X132047Y86635D01*
X132534Y85908D01*
X132663Y85821D01*
X132360Y84821D01*
X102636D01*
X101727Y85039D01*
X101727Y85821D01*
Y92748D01*
X101727D01*
Y93239D01*
X101727D01*
Y100948D01*
X99890D01*
Y101950D01*
X99890Y101950D01*
X99879Y102008D01*
X100075Y102281D01*
X100709Y102772D01*
X101320Y102651D01*
X101620Y102710D01*
X101673Y102675D01*
X102220Y102566D01*
X175895D01*
X176561Y102121D01*
X177420Y101951D01*
X177551Y101977D01*
X178551Y101193D01*
Y92994D01*
X178823Y91628D01*
X179596Y90470D01*
X189245Y80821D01*
X188831Y79821D01*
X164111D01*
X150226Y93707D01*
X150263Y93894D01*
X150092Y94752D01*
X149606Y95480D01*
X148878Y95966D01*
X148020Y96137D01*
X147161Y95966D01*
X146434Y95480D01*
X145947Y94752D01*
X145777Y93894D01*
X145947Y93035D01*
X146434Y92308D01*
X147161Y91821D01*
X148020Y91651D01*
X148207Y91688D01*
X154057Y85838D01*
X153564Y84916D01*
X153543Y84920D01*
X152685Y84750D01*
X151957Y84263D01*
X151471Y83536D01*
X151400Y83177D01*
X153543D01*
Y82677D01*
X154043D01*
Y80533D01*
X154402Y80605D01*
X155129Y81091D01*
X155616Y81819D01*
X155786Y82677D01*
X155782Y82698D01*
X156704Y83191D01*
X162510Y77384D01*
X162973Y77075D01*
X163520Y76966D01*
X163520Y76966D01*
X186591D01*
X187108Y75966D01*
X186904Y75661D01*
X186833Y75303D01*
X191120D01*
X191049Y75661D01*
X190845Y75966D01*
X191362Y76966D01*
X202020D01*
X202020Y76966D01*
X202566Y77075D01*
X203029Y77384D01*
X210111Y84466D01*
X236428D01*
X247410Y73484D01*
X247410Y73484D01*
X247688Y73299D01*
X247873Y73175D01*
X248420Y73066D01*
X287873D01*
X287911Y72875D01*
X288828Y71502D01*
X290201Y70585D01*
X291820Y70263D01*
X293439Y70585D01*
X294811Y71502D01*
X295728Y72875D01*
X296051Y74494D01*
X295728Y76113D01*
X294811Y77485D01*
X293439Y78403D01*
X291820Y78725D01*
X290201Y78403D01*
X288828Y77485D01*
X287911Y76113D01*
X287873Y75921D01*
X249011D01*
X238029Y86903D01*
X237566Y87213D01*
X237020Y87321D01*
X237020Y87321D01*
X209520D01*
X209520Y87321D01*
X208973Y87213D01*
X208788Y87089D01*
X208510Y86903D01*
X208510Y86903D01*
X201428Y79821D01*
X195579D01*
X195044Y80821D01*
X195517Y81528D01*
X195788Y82894D01*
X195517Y84259D01*
X194743Y85417D01*
X185688Y94472D01*
Y103424D01*
X186508Y103994D01*
Y106299D01*
Y108604D01*
X185688Y109175D01*
Y112894D01*
X185621Y113233D01*
X185749Y113436D01*
X186487Y114002D01*
X186508Y113998D01*
Y116142D01*
Y118285D01*
X186150Y118214D01*
X185422Y117728D01*
X184935Y117000D01*
X184859Y116615D01*
X183799Y116261D01*
X162388Y137672D01*
Y156794D01*
Y163694D01*
X162259Y164344D01*
X162388Y164994D01*
X162117Y166359D01*
X161343Y167517D01*
X152843Y176017D01*
X151685Y176791D01*
X150320Y177062D01*
X144372D01*
Y177446D01*
X136467D01*
Y169541D01*
X138890D01*
Y167253D01*
X134893D01*
Y160135D01*
X134812Y160007D01*
X133628D01*
X133546Y160135D01*
X133546Y160343D01*
Y167253D01*
X132301D01*
Y169997D01*
X133270Y170644D01*
X134143Y171951D01*
X134450Y173494D01*
X134143Y175036D01*
X133270Y176344D01*
X131962Y177217D01*
X130420Y177524D01*
X128877Y177217D01*
X127570Y176344D01*
X126696Y175036D01*
X126390Y173494D01*
X126696Y171951D01*
X127570Y170644D01*
X128877Y169770D01*
X129446Y169657D01*
Y167960D01*
X128996Y167510D01*
X128446Y167253D01*
X128200D01*
X127920D01*
X127639D01*
X127200Y167253D01*
X122293D01*
Y160135D01*
X122212Y160007D01*
X121028D01*
X120947Y160135D01*
X120947Y160343D01*
Y167253D01*
X119701D01*
Y168873D01*
X120420Y169464D01*
X121962Y169770D01*
X123269Y170644D01*
X124143Y171951D01*
X124450Y173494D01*
X124143Y175036D01*
X123269Y176344D01*
X121962Y177217D01*
X120420Y177524D01*
X118877Y177217D01*
X117570Y176344D01*
X116696Y175036D01*
X116390Y173494D01*
X116696Y171951D01*
X116904Y171640D01*
X116846Y171347D01*
X116846Y171347D01*
Y167253D01*
X115600D01*
Y160343D01*
X115600Y160135D01*
X115098Y159343D01*
X65147D01*
Y170039D01*
X66627D01*
Y177186D01*
X66726Y177340D01*
X67545Y177945D01*
X68020Y177851D01*
X68878Y178021D01*
X69606Y178508D01*
X70092Y179235D01*
X70263Y180094D01*
X70092Y180952D01*
X69606Y181680D01*
X68878Y182166D01*
X68020Y182337D01*
D02*
G37*
G36*
X11986Y184539D02*
X10343D01*
Y182896D01*
X10701Y182967D01*
X11429Y183453D01*
X11915Y184181D01*
X11986Y184539D01*
D02*
G37*
G36*
X9342D02*
X7699D01*
X7770Y184181D01*
X8256Y183453D01*
X8984Y182967D01*
X9342Y182896D01*
Y184539D01*
D02*
G37*
G36*
X89620Y177037D02*
Y175394D01*
X91263D01*
X91192Y175752D01*
X90706Y176480D01*
X89978Y176966D01*
X89620Y177037D01*
D02*
G37*
G36*
X110920Y177424D02*
Y173994D01*
X114350D01*
X114143Y175036D01*
X113269Y176344D01*
X111962Y177217D01*
X110920Y177424D01*
D02*
G37*
G36*
X109920D02*
X108877Y177217D01*
X107570Y176344D01*
X106696Y175036D01*
X106489Y173994D01*
X109920D01*
Y177424D01*
D02*
G37*
G36*
X55776Y177748D02*
X53013D01*
Y174394D01*
X55776D01*
Y177748D01*
D02*
G37*
G36*
X88620Y177037D02*
X88261Y176966D01*
X87534Y176480D01*
X87047Y175752D01*
X86976Y175394D01*
X88620D01*
Y177037D01*
D02*
G37*
G36*
X29341Y185950D02*
X27949Y185767D01*
X26653Y185230D01*
X25539Y184375D01*
X24685Y183262D01*
X24148Y181965D01*
X23964Y180573D01*
X24148Y179182D01*
X24685Y177885D01*
X25539Y176771D01*
X26653Y175917D01*
X27949Y175380D01*
X29341Y175197D01*
X30733Y175380D01*
X32029Y175917D01*
X33143Y176771D01*
X33997Y177885D01*
X34534Y179182D01*
X34718Y180573D01*
X34534Y181965D01*
X33997Y183262D01*
X33143Y184375D01*
X32029Y185230D01*
X30733Y185767D01*
X29341Y185950D01*
D02*
G37*
G36*
X110411Y184539D02*
X108768D01*
Y182896D01*
X109126Y182967D01*
X109854Y183453D01*
X110340Y184181D01*
X110411Y184539D01*
D02*
G37*
G36*
X107768D02*
X106124D01*
X106195Y184181D01*
X106682Y183453D01*
X107409Y182967D01*
X107768Y182896D01*
Y184539D01*
D02*
G37*
G36*
X127453D02*
X125809D01*
X125880Y184181D01*
X126367Y183453D01*
X127094Y182967D01*
X127453Y182896D01*
Y184539D01*
D02*
G37*
G36*
X147138D02*
X145494D01*
X145565Y184181D01*
X146052Y183453D01*
X146779Y182967D01*
X147138Y182896D01*
Y184539D01*
D02*
G37*
G36*
X130096D02*
X128453D01*
Y182896D01*
X128811Y182967D01*
X129539Y183453D01*
X130025Y184181D01*
X130096Y184539D01*
D02*
G37*
G36*
X90726D02*
X89083D01*
Y182896D01*
X89441Y182967D01*
X90169Y183453D01*
X90655Y184181D01*
X90726Y184539D01*
D02*
G37*
G36*
X21829D02*
X20185D01*
Y182896D01*
X20543Y182967D01*
X21271Y183453D01*
X21757Y184181D01*
X21829Y184539D01*
D02*
G37*
G36*
X19185D02*
X17541D01*
X17613Y184181D01*
X18099Y183453D01*
X18827Y182967D01*
X19185Y182896D01*
Y184539D01*
D02*
G37*
G36*
X48713D02*
X47069D01*
X47140Y184181D01*
X47627Y183453D01*
X48354Y182967D01*
X48713Y182896D01*
Y184539D01*
D02*
G37*
G36*
X88083D02*
X86439D01*
X86510Y184181D01*
X86997Y183453D01*
X87724Y182967D01*
X88083Y182896D01*
Y184539D01*
D02*
G37*
G36*
X51356D02*
X49713D01*
Y182896D01*
X50071Y182967D01*
X50799Y183453D01*
X51285Y184181D01*
X51356Y184539D01*
D02*
G37*
G36*
X100920Y177424D02*
Y173994D01*
X104350D01*
X104143Y175036D01*
X103270Y176344D01*
X101962Y177217D01*
X100920Y177424D01*
D02*
G37*
G36*
X74320Y170394D02*
X72676D01*
X72747Y170035D01*
X73234Y169308D01*
X73961Y168821D01*
X74320Y168750D01*
Y170394D01*
D02*
G37*
G36*
X110736Y167498D02*
Y165854D01*
X112380D01*
X112309Y166213D01*
X111822Y166940D01*
X111095Y167427D01*
X110736Y167498D01*
D02*
G37*
G36*
X76963Y170394D02*
X75320D01*
Y168750D01*
X75678Y168821D01*
X76406Y169308D01*
X76892Y170035D01*
X76963Y170394D01*
D02*
G37*
G36*
X104350Y172994D02*
X100920D01*
Y169563D01*
X101962Y169770D01*
X103270Y170644D01*
X104143Y171951D01*
X104350Y172994D01*
D02*
G37*
G36*
X99920D02*
X96489D01*
X96696Y171951D01*
X97570Y170644D01*
X98877Y169770D01*
X99920Y169563D01*
Y172994D01*
D02*
G37*
G36*
X109736Y167498D02*
X109378Y167427D01*
X108650Y166940D01*
X108164Y166213D01*
X108093Y165854D01*
X109736D01*
Y167498D01*
D02*
G37*
G36*
X112380Y164854D02*
X110736D01*
Y163211D01*
X111095Y163282D01*
X111822Y163768D01*
X112309Y164496D01*
X112380Y164854D01*
D02*
G37*
G36*
X109736D02*
X108093D01*
X108164Y164496D01*
X108650Y163768D01*
X109378Y163282D01*
X109736Y163211D01*
Y164854D01*
D02*
G37*
G36*
X56587Y165530D02*
X56228Y165458D01*
X55501Y164972D01*
X55014Y164244D01*
X54943Y163886D01*
X56587D01*
Y165530D01*
D02*
G37*
G36*
X9342Y167498D02*
X8984Y167427D01*
X8256Y166940D01*
X7770Y166213D01*
X7699Y165854D01*
X9342D01*
Y167498D01*
D02*
G37*
G36*
X57587Y165530D02*
Y163886D01*
X59230D01*
X59159Y164244D01*
X58673Y164972D01*
X57945Y165458D01*
X57587Y165530D01*
D02*
G37*
G36*
X91263Y174394D02*
X89620D01*
Y172750D01*
X89978Y172821D01*
X90706Y173308D01*
X91192Y174035D01*
X91263Y174394D01*
D02*
G37*
G36*
X88620D02*
X86976D01*
X87047Y174035D01*
X87534Y173308D01*
X88261Y172821D01*
X88620Y172750D01*
Y174394D01*
D02*
G37*
G36*
X9342Y174697D02*
X7699D01*
X7770Y174338D01*
X8256Y173611D01*
X8984Y173125D01*
X9342Y173053D01*
Y174697D01*
D02*
G37*
G36*
X99920Y177424D02*
X98877Y177217D01*
X97570Y176344D01*
X96696Y175036D01*
X96489Y173994D01*
X99920D01*
Y177424D01*
D02*
G37*
G36*
X11986Y174697D02*
X10343D01*
Y173053D01*
X10701Y173125D01*
X11429Y173611D01*
X11915Y174338D01*
X11986Y174697D01*
D02*
G37*
G36*
X38720Y174301D02*
Y171537D01*
X42074D01*
Y174301D01*
X38720D01*
D02*
G37*
G36*
X114350Y172994D02*
X110920D01*
Y169563D01*
X111962Y169770D01*
X113269Y170644D01*
X114143Y171951D01*
X114350Y172994D01*
D02*
G37*
G36*
X109920D02*
X106489D01*
X106696Y171951D01*
X107570Y170644D01*
X108877Y169770D01*
X109920Y169563D01*
Y172994D01*
D02*
G37*
G36*
X55776Y173394D02*
X53013D01*
Y170039D01*
X55776D01*
Y173394D01*
D02*
G37*
G36*
X75320Y173037D02*
Y171394D01*
X76963D01*
X76892Y171752D01*
X76406Y172480D01*
X75678Y172966D01*
X75320Y173037D01*
D02*
G37*
G36*
X74320D02*
X73961Y172966D01*
X73234Y172480D01*
X72747Y171752D01*
X72676Y171394D01*
X74320D01*
Y173037D01*
D02*
G37*
G36*
X166823Y187183D02*
X166464Y187112D01*
X165737Y186626D01*
X165251Y185898D01*
X165179Y185539D01*
X166823D01*
Y187183D01*
D02*
G37*
G36*
X148138D02*
Y185539D01*
X149781D01*
X149710Y185898D01*
X149224Y186626D01*
X148496Y187112D01*
X148138Y187183D01*
D02*
G37*
G36*
X167823D02*
Y185539D01*
X169466D01*
X169395Y185898D01*
X168909Y186626D01*
X168181Y187112D01*
X167823Y187183D01*
D02*
G37*
G36*
X187508D02*
Y185539D01*
X189152D01*
X189080Y185898D01*
X188594Y186626D01*
X187866Y187112D01*
X187508Y187183D01*
D02*
G37*
G36*
X186508D02*
X186150Y187112D01*
X185422Y186626D01*
X184935Y185898D01*
X184864Y185539D01*
X186508D01*
Y187183D01*
D02*
G37*
G36*
X147138D02*
X146779Y187112D01*
X146052Y186626D01*
X145565Y185898D01*
X145494Y185539D01*
X147138D01*
Y187183D01*
D02*
G37*
G36*
X107768D02*
X107409Y187112D01*
X106682Y186626D01*
X106195Y185898D01*
X106124Y185539D01*
X107768D01*
Y187183D01*
D02*
G37*
G36*
X89083D02*
Y185539D01*
X90726D01*
X90655Y185898D01*
X90169Y186626D01*
X89441Y187112D01*
X89083Y187183D01*
D02*
G37*
G36*
X108768D02*
Y185539D01*
X110411D01*
X110340Y185898D01*
X109854Y186626D01*
X109126Y187112D01*
X108768Y187183D01*
D02*
G37*
G36*
X128453D02*
Y185539D01*
X130096D01*
X130025Y185898D01*
X129539Y186626D01*
X128811Y187112D01*
X128453Y187183D01*
D02*
G37*
G36*
X127453D02*
X127094Y187112D01*
X126367Y186626D01*
X125880Y185898D01*
X125809Y185539D01*
X127453D01*
Y187183D01*
D02*
G37*
G36*
X266248D02*
Y185539D01*
X267892D01*
X267820Y185898D01*
X267334Y186626D01*
X266606Y187112D01*
X266248Y187183D01*
D02*
G37*
G36*
X265248D02*
X264890Y187112D01*
X264162Y186626D01*
X263676Y185898D01*
X263604Y185539D01*
X265248D01*
Y187183D01*
D02*
G37*
G36*
X284933D02*
X284575Y187112D01*
X283847Y186626D01*
X283361Y185898D01*
X283289Y185539D01*
X284933D01*
Y187183D01*
D02*
G37*
G36*
X304618D02*
X304260Y187112D01*
X303532Y186626D01*
X303046Y185898D01*
X302975Y185539D01*
X304618D01*
Y187183D01*
D02*
G37*
G36*
X285933D02*
Y185539D01*
X287577D01*
X287505Y185898D01*
X287019Y186626D01*
X286292Y187112D01*
X285933Y187183D01*
D02*
G37*
G36*
X246563D02*
Y185539D01*
X248207D01*
X248135Y185898D01*
X247649Y186626D01*
X246921Y187112D01*
X246563Y187183D01*
D02*
G37*
G36*
X207193D02*
Y185539D01*
X208837D01*
X208765Y185898D01*
X208279Y186626D01*
X207551Y187112D01*
X207193Y187183D01*
D02*
G37*
G36*
X206193D02*
X205835Y187112D01*
X205107Y186626D01*
X204621Y185898D01*
X204549Y185539D01*
X206193D01*
Y187183D01*
D02*
G37*
G36*
X225878D02*
X225520Y187112D01*
X224792Y186626D01*
X224306Y185898D01*
X224234Y185539D01*
X225878D01*
Y187183D01*
D02*
G37*
G36*
X245563D02*
X245205Y187112D01*
X244477Y186626D01*
X243991Y185898D01*
X243919Y185539D01*
X245563D01*
Y187183D01*
D02*
G37*
G36*
X226878D02*
Y185539D01*
X228522D01*
X228450Y185898D01*
X227964Y186626D01*
X227236Y187112D01*
X226878Y187183D01*
D02*
G37*
G36*
X88083D02*
X87724Y187112D01*
X86997Y186626D01*
X86510Y185898D01*
X86439Y185539D01*
X88083D01*
Y187183D01*
D02*
G37*
G36*
X225878Y184539D02*
X224234D01*
X224306Y184181D01*
X224792Y183453D01*
X225520Y182967D01*
X225878Y182896D01*
Y184539D01*
D02*
G37*
G36*
X208837D02*
X207193D01*
Y182896D01*
X207551Y182967D01*
X208279Y183453D01*
X208765Y184181D01*
X208837Y184539D01*
D02*
G37*
G36*
X228522D02*
X226878D01*
Y182896D01*
X227236Y182967D01*
X227964Y183453D01*
X228450Y184181D01*
X228522Y184539D01*
D02*
G37*
G36*
X248207D02*
X246563D01*
Y182896D01*
X246921Y182967D01*
X247649Y183453D01*
X248135Y184181D01*
X248207Y184539D01*
D02*
G37*
G36*
X245563D02*
X243919D01*
X243991Y184181D01*
X244477Y183453D01*
X245205Y182967D01*
X245563Y182896D01*
Y184539D01*
D02*
G37*
G36*
X206193D02*
X204549D01*
X204621Y184181D01*
X205107Y183453D01*
X205835Y182967D01*
X206193Y182896D01*
Y184539D01*
D02*
G37*
G36*
X166823D02*
X165179D01*
X165251Y184181D01*
X165737Y183453D01*
X166464Y182967D01*
X166823Y182896D01*
Y184539D01*
D02*
G37*
G36*
X149781D02*
X148138D01*
Y182896D01*
X148496Y182967D01*
X149224Y183453D01*
X149710Y184181D01*
X149781Y184539D01*
D02*
G37*
G36*
X169466D02*
X167823D01*
Y182896D01*
X168181Y182967D01*
X168909Y183453D01*
X169395Y184181D01*
X169466Y184539D01*
D02*
G37*
G36*
X189152D02*
X187508D01*
Y182896D01*
X187866Y182967D01*
X188594Y183453D01*
X189080Y184181D01*
X189152Y184539D01*
D02*
G37*
G36*
X186508D02*
X184864D01*
X184935Y184181D01*
X185422Y183453D01*
X186150Y182967D01*
X186508Y182896D01*
Y184539D01*
D02*
G37*
G36*
X19185Y187183D02*
X18827Y187112D01*
X18099Y186626D01*
X17613Y185898D01*
X17541Y185539D01*
X19185D01*
Y187183D01*
D02*
G37*
G36*
X10343D02*
Y185539D01*
X11986D01*
X11915Y185898D01*
X11429Y186626D01*
X10701Y187112D01*
X10343Y187183D01*
D02*
G37*
G36*
X20185D02*
Y185539D01*
X21829D01*
X21757Y185898D01*
X21271Y186626D01*
X20543Y187112D01*
X20185Y187183D01*
D02*
G37*
G36*
X49713D02*
Y185539D01*
X51356D01*
X51285Y185898D01*
X50799Y186626D01*
X50071Y187112D01*
X49713Y187183D01*
D02*
G37*
G36*
X48713D02*
X48354Y187112D01*
X47627Y186626D01*
X47140Y185898D01*
X47069Y185539D01*
X48713D01*
Y187183D01*
D02*
G37*
G36*
X9342D02*
X8984Y187112D01*
X8256Y186626D01*
X7770Y185898D01*
X7699Y185539D01*
X9342D01*
Y187183D01*
D02*
G37*
G36*
X267892Y184539D02*
X266248D01*
Y182896D01*
X266606Y182967D01*
X267334Y183453D01*
X267820Y184181D01*
X267892Y184539D01*
D02*
G37*
G36*
X265248D02*
X263604D01*
X263676Y184181D01*
X264162Y183453D01*
X264890Y182967D01*
X265248Y182896D01*
Y184539D01*
D02*
G37*
G36*
X284933D02*
X283289D01*
X283361Y184181D01*
X283847Y183453D01*
X284575Y182967D01*
X284933Y182896D01*
Y184539D01*
D02*
G37*
G36*
X296063Y186116D02*
X293746Y185811D01*
X291588Y184917D01*
X289734Y183494D01*
X288312Y181641D01*
X287417Y179482D01*
X287112Y177165D01*
X287417Y174849D01*
X288312Y172690D01*
X289734Y170836D01*
X291588Y169414D01*
X293746Y168520D01*
X296063Y168215D01*
X298380Y168520D01*
X300538Y169414D01*
X302392Y170836D01*
X303814Y172690D01*
X304709Y174849D01*
X305014Y177165D01*
X304709Y179482D01*
X303814Y181641D01*
X303151Y182505D01*
X303844Y183245D01*
X304260Y182967D01*
X304618Y182896D01*
Y184539D01*
X302975D01*
X303045Y184184D01*
X303037Y184175D01*
X302213Y183632D01*
X300538Y184917D01*
X298380Y185811D01*
X296063Y186116D01*
D02*
G37*
G36*
X287577Y184539D02*
X285933D01*
Y182896D01*
X286292Y182967D01*
X287019Y183453D01*
X287505Y184181D01*
X287577Y184539D01*
D02*
G37*
G36*
X9342Y164854D02*
X7699D01*
X7770Y164496D01*
X8256Y163768D01*
X8984Y163282D01*
X9342Y163211D01*
Y164854D01*
D02*
G37*
G36*
X187508Y128128D02*
Y126484D01*
X189152D01*
X189080Y126843D01*
X188594Y127570D01*
X187866Y128057D01*
X187508Y128128D01*
D02*
G37*
G36*
X186508D02*
X186150Y128057D01*
X185422Y127570D01*
X184935Y126843D01*
X184864Y126484D01*
X186508D01*
Y128128D01*
D02*
G37*
G36*
X197350D02*
Y126484D01*
X198994D01*
X198923Y126843D01*
X198436Y127570D01*
X197709Y128057D01*
X197350Y128128D01*
D02*
G37*
G36*
X196350D02*
X195992Y128057D01*
X195264Y127570D01*
X194778Y126843D01*
X194707Y126484D01*
X196350D01*
Y128128D01*
D02*
G37*
G36*
X10450Y127894D02*
X7020D01*
Y124463D01*
X8062Y124670D01*
X9369Y125544D01*
X10243Y126851D01*
X10450Y127894D01*
D02*
G37*
G36*
X218679Y125484D02*
X217035D01*
Y123841D01*
X217394Y123912D01*
X218122Y124398D01*
X218608Y125126D01*
X218679Y125484D01*
D02*
G37*
G36*
X230863Y126694D02*
X229220D01*
Y125050D01*
X229578Y125121D01*
X230306Y125608D01*
X230792Y126335D01*
X230863Y126694D01*
D02*
G37*
G36*
X228220D02*
X226576D01*
X226647Y126335D01*
X227134Y125608D01*
X227861Y125121D01*
X228220Y125050D01*
Y126694D01*
D02*
G37*
G36*
X206193Y128128D02*
X205835Y128057D01*
X205107Y127570D01*
X204621Y126843D01*
X204549Y126484D01*
X206193D01*
Y128128D01*
D02*
G37*
G36*
X7020Y132324D02*
Y128894D01*
X10450D01*
X10243Y129936D01*
X9369Y131244D01*
X8062Y132117D01*
X7020Y132324D01*
D02*
G37*
G36*
X229220Y129337D02*
Y127694D01*
X230863D01*
X230792Y128052D01*
X230306Y128780D01*
X229578Y129266D01*
X229220Y129337D01*
D02*
G37*
G36*
X305293Y133358D02*
X303650D01*
Y131715D01*
X304008Y131786D01*
X304736Y132272D01*
X305222Y133000D01*
X305293Y133358D01*
D02*
G37*
G36*
X302650D02*
X301006D01*
X301077Y133000D01*
X301564Y132272D01*
X302291Y131786D01*
X302650Y131715D01*
Y133358D01*
D02*
G37*
G36*
X216035Y128128D02*
X215677Y128057D01*
X214949Y127570D01*
X214463Y126843D01*
X214392Y126484D01*
X216035D01*
Y128128D01*
D02*
G37*
G36*
X207193D02*
Y126484D01*
X208837D01*
X208765Y126843D01*
X208279Y127570D01*
X207551Y128057D01*
X207193Y128128D01*
D02*
G37*
G36*
X228220Y129337D02*
X227861Y129266D01*
X227134Y128780D01*
X226647Y128052D01*
X226576Y127694D01*
X228220D01*
Y129337D01*
D02*
G37*
G36*
X217035Y128128D02*
Y126484D01*
X218679D01*
X218608Y126843D01*
X218122Y127570D01*
X217394Y128057D01*
X217035Y128128D01*
D02*
G37*
G36*
X216035Y125484D02*
X214392D01*
X214463Y125126D01*
X214949Y124398D01*
X215677Y123912D01*
X216035Y123841D01*
Y125484D01*
D02*
G37*
G36*
X197350Y118285D02*
Y116642D01*
X198994D01*
X198923Y117000D01*
X198436Y117728D01*
X197709Y118214D01*
X197350Y118285D01*
D02*
G37*
G36*
X196350D02*
X195992Y118214D01*
X195264Y117728D01*
X194778Y117000D01*
X194707Y116642D01*
X196350D01*
Y118285D01*
D02*
G37*
G36*
X207193D02*
Y116642D01*
X208837D01*
X208765Y117000D01*
X208279Y117728D01*
X207551Y118214D01*
X207193Y118285D01*
D02*
G37*
G36*
X206193D02*
X205835Y118214D01*
X205107Y117728D01*
X204621Y117000D01*
X204549Y116642D01*
X206193D01*
Y118285D01*
D02*
G37*
G36*
X48713Y116317D02*
X48354Y116246D01*
X47627Y115759D01*
X47140Y115032D01*
X47069Y114673D01*
X48713D01*
Y116317D01*
D02*
G37*
G36*
X10450Y117894D02*
X7020D01*
Y114463D01*
X8062Y114670D01*
X9369Y115544D01*
X10243Y116851D01*
X10450Y117894D01*
D02*
G37*
G36*
X187508Y118285D02*
Y116642D01*
X189152D01*
X189080Y117000D01*
X188594Y117728D01*
X187866Y118214D01*
X187508Y118285D01*
D02*
G37*
G36*
X49713Y116317D02*
Y114673D01*
X51356D01*
X51285Y115032D01*
X50799Y115759D01*
X50071Y116246D01*
X49713Y116317D01*
D02*
G37*
G36*
X225878Y118285D02*
X225520Y118214D01*
X224792Y117728D01*
X224306Y117000D01*
X224234Y116642D01*
X225878D01*
Y118285D01*
D02*
G37*
G36*
X198994Y125484D02*
X197350D01*
Y123841D01*
X197709Y123912D01*
X198436Y124398D01*
X198923Y125126D01*
X198994Y125484D01*
D02*
G37*
G36*
X196350D02*
X194707D01*
X194778Y125126D01*
X195264Y124398D01*
X195992Y123912D01*
X196350Y123841D01*
Y125484D01*
D02*
G37*
G36*
X208837D02*
X207193D01*
Y123841D01*
X207551Y123912D01*
X208279Y124398D01*
X208765Y125126D01*
X208837Y125484D01*
D02*
G37*
G36*
X206193D02*
X204549D01*
X204621Y125126D01*
X205107Y124398D01*
X205835Y123912D01*
X206193Y123841D01*
Y125484D01*
D02*
G37*
G36*
X7020Y122324D02*
Y118894D01*
X10450D01*
X10243Y119936D01*
X9369Y121244D01*
X8062Y122117D01*
X7020Y122324D01*
D02*
G37*
G36*
X226878Y118285D02*
Y116642D01*
X228522D01*
X228450Y117000D01*
X227964Y117728D01*
X227236Y118214D01*
X226878Y118285D01*
D02*
G37*
G36*
X189152Y125484D02*
X187508D01*
Y123841D01*
X187866Y123912D01*
X188594Y124398D01*
X189080Y125126D01*
X189152Y125484D01*
D02*
G37*
G36*
X186508D02*
X184864D01*
X184935Y125126D01*
X185422Y124398D01*
X186150Y123912D01*
X186508Y123841D01*
Y125484D01*
D02*
G37*
G36*
X302650Y136002D02*
X302291Y135931D01*
X301564Y135444D01*
X301077Y134717D01*
X301006Y134358D01*
X302650D01*
Y136002D01*
D02*
G37*
G36*
X9342Y157655D02*
X8984Y157584D01*
X8256Y157098D01*
X7770Y156370D01*
X7699Y156012D01*
X9342D01*
Y157655D01*
D02*
G37*
G36*
X236320Y164337D02*
X235461Y164166D01*
X234734Y163680D01*
X234247Y162952D01*
X234077Y162094D01*
X234247Y161235D01*
X234535Y160804D01*
Y158715D01*
X234521Y158694D01*
X234385Y158011D01*
Y134672D01*
X234521Y133989D01*
X234908Y133410D01*
X246835Y121483D01*
Y118584D01*
X245983Y118014D01*
X245174Y116804D01*
X244891Y115377D01*
X245174Y113950D01*
X245983Y112740D01*
X246841Y112167D01*
X246971Y111511D01*
X247358Y110932D01*
X260158Y98132D01*
X260158Y98132D01*
X260737Y97745D01*
X261420Y97609D01*
X278638D01*
X287537Y88710D01*
X287187Y86951D01*
X287540Y85179D01*
X288544Y83676D01*
X290047Y82671D01*
X291820Y82319D01*
X293579Y82669D01*
X297735Y78512D01*
Y43527D01*
X292976Y38768D01*
X291720Y39018D01*
X290177Y38712D01*
X288870Y37838D01*
X288158Y36773D01*
X267264D01*
X255629Y48408D01*
X255050Y48795D01*
X254367Y48931D01*
X251176D01*
Y50312D01*
X245410D01*
X242902Y52820D01*
X243252Y54579D01*
X242899Y56351D01*
X241895Y57854D01*
X240659Y58680D01*
Y73894D01*
X240504Y74674D01*
X240062Y75336D01*
X238467Y76930D01*
X238257Y77986D01*
X237638Y78912D01*
X236712Y79531D01*
X235620Y79749D01*
X234527Y79531D01*
X233601Y78912D01*
X232982Y77986D01*
X232765Y76894D01*
X232982Y75801D01*
X233601Y74875D01*
X234527Y74256D01*
X235583Y74046D01*
X236580Y73049D01*
Y58680D01*
X235344Y57854D01*
X234340Y56351D01*
X233987Y54579D01*
X234340Y52806D01*
X235344Y51303D01*
X236847Y50299D01*
X238620Y49946D01*
X240379Y50296D01*
X243664Y47011D01*
Y43981D01*
Y42461D01*
X240379Y39176D01*
X239120Y39426D01*
Y35394D01*
X243152D01*
X242902Y36653D01*
X244325Y38076D01*
X246920D01*
Y41241D01*
X247420D01*
Y41741D01*
X251176D01*
Y43981D01*
Y45362D01*
X253628D01*
X265264Y33727D01*
X265842Y33340D01*
X266525Y33204D01*
X288158D01*
X288870Y32138D01*
X290177Y31265D01*
X291720Y30958D01*
X293262Y31265D01*
X294569Y32138D01*
X295443Y33446D01*
X295750Y34988D01*
X295500Y36245D01*
X300781Y41526D01*
X300781Y41526D01*
X301168Y42105D01*
X301304Y42788D01*
X301304Y42788D01*
Y52503D01*
X302291Y53046D01*
X302650Y52974D01*
Y55118D01*
Y57262D01*
X302291Y57191D01*
X301304Y57734D01*
Y79251D01*
X301193Y79807D01*
Y79807D01*
X301169Y79932D01*
X301168Y79934D01*
X301142Y80119D01*
X301146Y80184D01*
X302050Y80753D01*
X302090Y80739D01*
X302191Y80671D01*
X302291Y80605D01*
X302650Y80533D01*
Y82177D01*
X301006D01*
X301059Y81911D01*
X301059D01*
X301074Y81833D01*
X301077Y81819D01*
X301108Y81640D01*
X301105Y81587D01*
X300184Y81110D01*
X300119Y81175D01*
X296102Y85192D01*
X296452Y86951D01*
X296099Y88724D01*
X295095Y90227D01*
X293592Y91231D01*
X291820Y91584D01*
X290061Y91234D01*
X281161Y100133D01*
Y133736D01*
X281026Y134419D01*
X280639Y134998D01*
X280639Y134998D01*
X279593Y136044D01*
X279492Y136552D01*
X279006Y137280D01*
X278278Y137766D01*
X277420Y137937D01*
X276561Y137766D01*
X275834Y137280D01*
X275347Y136552D01*
X275177Y135694D01*
X275347Y134835D01*
X275834Y134108D01*
X276561Y133621D01*
X277070Y133520D01*
X277593Y132997D01*
Y101178D01*
X262159D01*
X251197Y112139D01*
X251257Y112740D01*
X252065Y113950D01*
X252349Y115377D01*
X252065Y116804D01*
X251257Y118014D01*
X250404Y118584D01*
Y122222D01*
X250404Y122222D01*
X250268Y122905D01*
X249881Y123483D01*
X240401Y132964D01*
X240565Y134214D01*
X240706Y134308D01*
X241192Y135035D01*
X241363Y135894D01*
X241192Y136752D01*
X240904Y137183D01*
Y152455D01*
X243759Y155309D01*
X247365D01*
X247464Y154309D01*
X247193Y154255D01*
X245983Y153447D01*
X245174Y152237D01*
X244891Y150810D01*
X245174Y149383D01*
X245983Y148173D01*
X247193Y147365D01*
X248620Y147081D01*
X250047Y147365D01*
X251257Y148173D01*
X252065Y149383D01*
X252349Y150810D01*
X252065Y152237D01*
X251257Y153447D01*
X250047Y154255D01*
X249776Y154309D01*
X249874Y155309D01*
X260421D01*
X260724Y154309D01*
X259883Y153747D01*
X259074Y152537D01*
X258791Y151110D01*
X259074Y149683D01*
X259883Y148473D01*
X261093Y147665D01*
X262520Y147381D01*
X263947Y147665D01*
X265157Y148473D01*
X265965Y149683D01*
X266249Y151110D01*
X265965Y152537D01*
X265157Y153747D01*
X264315Y154309D01*
X264618Y155309D01*
X296330D01*
X296761Y155021D01*
X297620Y154851D01*
X298478Y155021D01*
X299206Y155508D01*
X299692Y156235D01*
X299863Y157094D01*
X299692Y157952D01*
X299206Y158680D01*
X298478Y159166D01*
X297620Y159337D01*
X296761Y159166D01*
X296330Y158878D01*
X243020D01*
X242337Y158742D01*
X241758Y158355D01*
X241758Y158355D01*
X238878Y155475D01*
X237954Y155858D01*
Y157457D01*
X237968Y157479D01*
X238104Y158161D01*
Y160804D01*
X238392Y161235D01*
X238563Y162094D01*
X238392Y162952D01*
X237906Y163680D01*
X237178Y164166D01*
X236320Y164337D01*
D02*
G37*
G36*
X305293Y160917D02*
X303650D01*
Y159274D01*
X304008Y159345D01*
X304736Y159831D01*
X305222Y160559D01*
X305293Y160917D01*
D02*
G37*
G36*
X302650D02*
X301006D01*
X301077Y160559D01*
X301564Y159831D01*
X302291Y159345D01*
X302650Y159274D01*
Y160917D01*
D02*
G37*
G36*
X29841Y158325D02*
Y153514D01*
X34652D01*
X34534Y154406D01*
X33997Y155702D01*
X33143Y156816D01*
X32029Y157670D01*
X30733Y158208D01*
X29841Y158325D01*
D02*
G37*
G36*
X212632Y157462D02*
X211267Y157191D01*
X210109Y156417D01*
X209335Y155259D01*
X209064Y153894D01*
X209335Y152528D01*
X210109Y151370D01*
X211267Y150597D01*
X212632Y150325D01*
X213998Y150597D01*
X215156Y151370D01*
X215929Y152528D01*
X216201Y153894D01*
X215929Y155259D01*
X215156Y156417D01*
X213998Y157191D01*
X212632Y157462D01*
D02*
G37*
G36*
X193420D02*
X192054Y157191D01*
X190896Y156417D01*
X190123Y155259D01*
X189851Y153894D01*
X190123Y152528D01*
X190896Y151370D01*
X192054Y150597D01*
X193420Y150325D01*
X194785Y150597D01*
X195943Y151370D01*
X196717Y152528D01*
X196988Y153894D01*
X196717Y155259D01*
X195943Y156417D01*
X194785Y157191D01*
X193420Y157462D01*
D02*
G37*
G36*
X28841Y158325D02*
X27949Y158208D01*
X26653Y157670D01*
X25539Y156816D01*
X24685Y155702D01*
X24148Y154406D01*
X24030Y153514D01*
X28841D01*
Y158325D01*
D02*
G37*
G36*
X9342Y155012D02*
X7699D01*
X7770Y154653D01*
X8256Y153926D01*
X8984Y153439D01*
X9342Y153368D01*
Y155012D01*
D02*
G37*
G36*
X10472Y137894D02*
X7020D01*
Y134441D01*
X10472D01*
Y137894D01*
D02*
G37*
G36*
X59230Y162886D02*
X57587D01*
Y161242D01*
X57945Y161313D01*
X58673Y161800D01*
X59159Y162527D01*
X59230Y162886D01*
D02*
G37*
G36*
X303650Y136002D02*
Y134358D01*
X305293D01*
X305222Y134717D01*
X304736Y135444D01*
X304008Y135931D01*
X303650Y136002D01*
D02*
G37*
G36*
Y163561D02*
Y161917D01*
X305293D01*
X305222Y162276D01*
X304736Y163003D01*
X304008Y163490D01*
X303650Y163561D01*
D02*
G37*
G36*
X302650D02*
X302291Y163490D01*
X301564Y163003D01*
X301077Y162276D01*
X301006Y161917D01*
X302650D01*
Y163561D01*
D02*
G37*
G36*
X56587Y162886D02*
X54943D01*
X55014Y162527D01*
X55501Y161800D01*
X56228Y161313D01*
X56587Y161242D01*
Y162886D01*
D02*
G37*
G36*
X10472Y142347D02*
X7020D01*
Y138894D01*
X10472D01*
Y142347D01*
D02*
G37*
%LPD*%
G36*
X155251Y136194D02*
X155484Y135021D01*
X154729Y134266D01*
X149274D01*
Y135402D01*
X150193Y136196D01*
X150420Y136151D01*
X151278Y136321D01*
X152006Y136808D01*
X152492Y137535D01*
X152663Y138394D01*
X152492Y139252D01*
X152006Y139980D01*
X151278Y140466D01*
X150420Y140637D01*
X149561Y140466D01*
X148834Y139980D01*
X148796Y139923D01*
X101644D01*
X101606Y139980D01*
X100878Y140466D01*
X100020Y140637D01*
X99161Y140466D01*
X98434Y139980D01*
X97947Y139252D01*
X97777Y138394D01*
X97947Y137535D01*
X98434Y136808D01*
X99161Y136321D01*
X100020Y136151D01*
X100878Y136321D01*
X101606Y136808D01*
X101644Y136864D01*
X137207D01*
X137534Y135880D01*
X137047Y135152D01*
X136877Y134294D01*
X137047Y133435D01*
X137534Y132708D01*
X138261Y132221D01*
X139120Y132051D01*
X139307Y132088D01*
X139667Y131728D01*
X139667Y131728D01*
X139945Y131542D01*
X140130Y131418D01*
X140676Y131310D01*
X140858D01*
X141565Y130603D01*
Y129914D01*
X141565Y129473D01*
Y129194D01*
Y128914D01*
X141565Y128473D01*
Y126150D01*
X149274D01*
Y128473D01*
X149274Y128914D01*
Y129194D01*
Y129473D01*
X149274Y129914D01*
Y131208D01*
X155363D01*
X155948Y131324D01*
X156444Y131656D01*
X157378Y132589D01*
X178551Y111416D01*
Y107195D01*
X177551Y106411D01*
X177420Y106437D01*
X176561Y106266D01*
X175834Y105780D01*
X175192Y105901D01*
X174463Y106594D01*
X174292Y107452D01*
X173806Y108180D01*
X173078Y108666D01*
X172220Y108837D01*
X172032Y108800D01*
X170829Y110003D01*
X170366Y110312D01*
X169820Y110421D01*
X169820Y110421D01*
X101812D01*
X101706Y110580D01*
X100978Y111066D01*
X100120Y111237D01*
X99261Y111066D01*
X98534Y110580D01*
X98047Y109852D01*
X97877Y108994D01*
X98047Y108135D01*
X98534Y107408D01*
X99024Y107080D01*
X99265Y106876D01*
X99337Y105887D01*
X99247Y105752D01*
X99215Y105589D01*
X98099Y105071D01*
X97861Y105207D01*
X97792Y105552D01*
X97306Y106280D01*
X96578Y106766D01*
X95720Y106937D01*
X94861Y106766D01*
X94834Y106748D01*
X93934Y107349D01*
X93963Y107494D01*
X93792Y108352D01*
X93306Y109080D01*
X92966Y109307D01*
X92724Y110479D01*
X95411Y113166D01*
X106027D01*
X106134Y113008D01*
X106861Y112521D01*
X107720Y112351D01*
X108578Y112521D01*
X109306Y113008D01*
X109792Y113735D01*
X109963Y114594D01*
X109932Y114749D01*
X110854Y115241D01*
X112710Y113384D01*
X112710Y113384D01*
X113173Y113075D01*
X113720Y112966D01*
X113720Y112966D01*
X121228D01*
X121334Y112808D01*
X122061Y112321D01*
X122920Y112151D01*
X123778Y112321D01*
X124506Y112808D01*
X124992Y113535D01*
X125161Y114383D01*
X125165Y114401D01*
X125418Y115343D01*
X125896Y115445D01*
X126278Y115521D01*
X127006Y116008D01*
X127492Y116735D01*
X127563Y117094D01*
X125420D01*
Y118094D01*
X128014D01*
X128470Y118651D01*
X145078D01*
X146266Y117463D01*
X146434Y116480D01*
X145947Y115752D01*
X145777Y114894D01*
X145947Y114035D01*
X146434Y113308D01*
X147161Y112821D01*
X148020Y112651D01*
X148878Y112821D01*
X149606Y113308D01*
X150092Y114035D01*
X150263Y114894D01*
X150092Y115752D01*
X149606Y116480D01*
X149447Y116586D01*
Y117728D01*
X149338Y118275D01*
X149214Y118460D01*
X149029Y118738D01*
X149029Y118738D01*
X146679Y121088D01*
X146216Y121397D01*
X146369Y122387D01*
X149274D01*
Y125150D01*
X141565D01*
Y122506D01*
X141565Y122387D01*
X141277Y121506D01*
X127052D01*
X127043Y121512D01*
X126497Y121621D01*
X126497Y121621D01*
X124343D01*
X124343Y121621D01*
X123796Y121512D01*
X123611Y121388D01*
X123333Y121203D01*
X123333Y121203D01*
X123089Y120958D01*
X121952Y121236D01*
X121665Y121665D01*
X120937Y122151D01*
X120079Y122322D01*
X119220Y122151D01*
X118493Y121665D01*
X118463Y121621D01*
X110791D01*
X110282Y122621D01*
X110492Y122935D01*
X110663Y123794D01*
X110492Y124652D01*
X110006Y125380D01*
X109997Y125386D01*
X110045Y126004D01*
X110162Y126478D01*
X110806Y126908D01*
X111292Y127635D01*
X111422Y128287D01*
X111614Y128584D01*
X112374Y129039D01*
X112820Y128951D01*
X113678Y129121D01*
X114406Y129608D01*
X114892Y130335D01*
X115063Y131194D01*
X114892Y132052D01*
X114406Y132780D01*
X113678Y133266D01*
X112820Y133437D01*
X111961Y133266D01*
X111234Y132780D01*
X111127Y132621D01*
X89545D01*
X89003Y133358D01*
X84225D01*
X83684Y132621D01*
X44311D01*
X40178Y136754D01*
X40243Y136851D01*
X40550Y138394D01*
X40243Y139936D01*
X39369Y141244D01*
X38827Y141606D01*
X38866Y142196D01*
X38988Y142701D01*
X39722Y143191D01*
X50775Y154245D01*
X102013D01*
Y147639D01*
X102013Y147639D01*
X102013D01*
X102047Y146652D01*
X101877Y145794D01*
X102047Y144935D01*
X102534Y144208D01*
X103261Y143721D01*
X104120Y143551D01*
X104978Y143721D01*
X105706Y144208D01*
X105909Y144512D01*
X107061Y144566D01*
X107234Y144308D01*
X107961Y143821D01*
X108320Y143750D01*
Y145894D01*
X108820D01*
Y146394D01*
X110963D01*
X110915Y146639D01*
X110972Y146869D01*
X111502Y147639D01*
X111863D01*
Y151494D01*
X112363D01*
Y151994D01*
X115627D01*
Y154245D01*
X155251D01*
Y136194D01*
D02*
G37*
%LPC*%
G36*
X122547Y151750D02*
Y150106D01*
X124191D01*
X124120Y150465D01*
X123633Y151192D01*
X122906Y151679D01*
X122547Y151750D01*
D02*
G37*
G36*
X134358Y147813D02*
Y146169D01*
X136002D01*
X135931Y146528D01*
X135444Y147255D01*
X134717Y147742D01*
X134358Y147813D01*
D02*
G37*
G36*
X124191Y149106D02*
X122547D01*
Y147463D01*
X122906Y147534D01*
X123633Y148020D01*
X124120Y148748D01*
X124191Y149106D01*
D02*
G37*
G36*
X115627Y150994D02*
X112863D01*
Y147639D01*
X115627D01*
Y150994D01*
D02*
G37*
G36*
X121547Y151750D02*
X121189Y151679D01*
X120461Y151192D01*
X119975Y150465D01*
X119904Y150106D01*
X121547D01*
Y151750D01*
D02*
G37*
G36*
Y149106D02*
X119904D01*
X119975Y148748D01*
X120461Y148020D01*
X121189Y147534D01*
X121547Y147463D01*
Y149106D01*
D02*
G37*
G36*
X171220Y116437D02*
Y114794D01*
X172863D01*
X172792Y115152D01*
X172306Y115880D01*
X171578Y116366D01*
X171220Y116437D01*
D02*
G37*
G36*
X170220Y113794D02*
X168576D01*
X168647Y113435D01*
X169134Y112708D01*
X169861Y112221D01*
X170220Y112150D01*
Y113794D01*
D02*
G37*
G36*
X172863D02*
X171220D01*
Y112150D01*
X171578Y112221D01*
X172306Y112708D01*
X172792Y113435D01*
X172863Y113794D01*
D02*
G37*
G36*
X120254Y125484D02*
X118610D01*
Y123841D01*
X118969Y123912D01*
X119696Y124398D01*
X120183Y125126D01*
X120254Y125484D01*
D02*
G37*
G36*
X117610D02*
X115967D01*
X116038Y125126D01*
X116524Y124398D01*
X117252Y123912D01*
X117610Y123841D01*
Y125484D01*
D02*
G37*
G36*
X170220Y116437D02*
X169861Y116366D01*
X169134Y115880D01*
X168647Y115152D01*
X168576Y114794D01*
X170220D01*
Y116437D01*
D02*
G37*
G36*
X50681Y141232D02*
X49038D01*
X49109Y140874D01*
X49595Y140146D01*
X50323Y139660D01*
X50681Y139589D01*
Y141232D01*
D02*
G37*
G36*
X123720Y129794D02*
X122076D01*
X122147Y129435D01*
X122634Y128708D01*
X123361Y128221D01*
X123720Y128150D01*
Y129794D01*
D02*
G37*
G36*
X126363D02*
X124720D01*
Y128150D01*
X125078Y128221D01*
X125806Y128708D01*
X126292Y129435D01*
X126363Y129794D01*
D02*
G37*
G36*
X158220Y128337D02*
X157861Y128266D01*
X157134Y127780D01*
X156647Y127052D01*
X156576Y126694D01*
X158220D01*
Y128337D01*
D02*
G37*
G36*
X159220D02*
Y126694D01*
X160863D01*
X160792Y127052D01*
X160306Y127780D01*
X159578Y128266D01*
X159220Y128337D01*
D02*
G37*
G36*
X53325Y141232D02*
X51681D01*
Y139589D01*
X52039Y139660D01*
X52767Y140146D01*
X53254Y140874D01*
X53325Y141232D01*
D02*
G37*
G36*
X124720Y132437D02*
Y130794D01*
X126363D01*
X126292Y131152D01*
X125806Y131880D01*
X125078Y132366D01*
X124720Y132437D01*
D02*
G37*
G36*
X83520Y147652D02*
X82520D01*
X81349Y147420D01*
X80357Y146757D01*
X79694Y145764D01*
X79461Y144594D01*
X79694Y143423D01*
X80357Y142431D01*
X80562Y142294D01*
Y141294D01*
X80357Y141157D01*
X79694Y140164D01*
X79461Y138994D01*
X79694Y137823D01*
X80357Y136831D01*
X81349Y136168D01*
X82520Y135935D01*
X83520D01*
X84345Y136099D01*
X84852Y135180D01*
X84542Y134717D01*
X84470Y134358D01*
X86114D01*
Y136232D01*
X85926Y136493D01*
X85763Y136952D01*
X86346Y137823D01*
X86579Y138994D01*
X86346Y140164D01*
X85683Y141157D01*
X85477Y141294D01*
Y142294D01*
X85683Y142431D01*
X86346Y143423D01*
X86579Y144594D01*
X86346Y145764D01*
X85683Y146757D01*
X84690Y147420D01*
X83520Y147652D01*
D02*
G37*
G36*
X87114Y136002D02*
Y134358D01*
X88758D01*
X88687Y134717D01*
X88200Y135444D01*
X87473Y135931D01*
X87114Y136002D01*
D02*
G37*
G36*
X117610Y132065D02*
X117252Y131994D01*
X116524Y131507D01*
X116038Y130780D01*
X115967Y130421D01*
X117610D01*
Y132065D01*
D02*
G37*
G36*
X118610D02*
Y130421D01*
X120254D01*
X120183Y130780D01*
X119696Y131507D01*
X118969Y131994D01*
X118610Y132065D01*
D02*
G37*
G36*
X123720Y132437D02*
X123361Y132366D01*
X122634Y131880D01*
X122147Y131152D01*
X122076Y130794D01*
X123720D01*
Y132437D01*
D02*
G37*
G36*
X93620Y143494D02*
X91976D01*
X92047Y143135D01*
X92534Y142408D01*
X93261Y141921D01*
X93620Y141850D01*
Y143494D01*
D02*
G37*
G36*
X94620Y146137D02*
Y144494D01*
X96263D01*
X96192Y144852D01*
X95706Y145580D01*
X94978Y146066D01*
X94620Y146137D01*
D02*
G37*
G36*
X93620D02*
X93261Y146066D01*
X92534Y145580D01*
X92047Y144852D01*
X91976Y144494D01*
X93620D01*
Y146137D01*
D02*
G37*
G36*
X120254Y129421D02*
X115967D01*
X116038Y129063D01*
X116322Y128638D01*
X116452Y127953D01*
X116322Y127268D01*
X116038Y126843D01*
X115967Y126484D01*
X120254D01*
X120183Y126843D01*
X119899Y127268D01*
X119769Y127953D01*
X119899Y128638D01*
X120183Y129063D01*
X120254Y129421D01*
D02*
G37*
G36*
X158220Y125694D02*
X156576D01*
X156647Y125335D01*
X157134Y124608D01*
X157861Y124121D01*
X158220Y124050D01*
Y125694D01*
D02*
G37*
G36*
X160863D02*
X159220D01*
Y124050D01*
X159578Y124121D01*
X160306Y124608D01*
X160792Y125335D01*
X160863Y125694D01*
D02*
G37*
G36*
X133358Y147813D02*
X133000Y147742D01*
X132272Y147255D01*
X131786Y146528D01*
X131715Y146169D01*
X133358D01*
Y147813D01*
D02*
G37*
G36*
X51681Y143876D02*
Y142232D01*
X53325D01*
X53254Y142591D01*
X52767Y143318D01*
X52039Y143805D01*
X51681Y143876D01*
D02*
G37*
G36*
X50681D02*
X50323Y143805D01*
X49595Y143318D01*
X49109Y142591D01*
X49038Y142232D01*
X50681D01*
Y143876D01*
D02*
G37*
G36*
X96263Y143494D02*
X94620D01*
Y141850D01*
X94978Y141921D01*
X95706Y142408D01*
X96192Y143135D01*
X96263Y143494D01*
D02*
G37*
G36*
X110963Y145394D02*
X109320D01*
Y143750D01*
X109678Y143821D01*
X110406Y144308D01*
X110892Y145035D01*
X110963Y145394D01*
D02*
G37*
G36*
X136002Y145169D02*
X134358D01*
Y143526D01*
X134717Y143597D01*
X135444Y144083D01*
X135931Y144811D01*
X136002Y145169D01*
D02*
G37*
G36*
X133358D02*
X131715D01*
X131786Y144811D01*
X132272Y144083D01*
X133000Y143597D01*
X133358Y143526D01*
Y145169D01*
D02*
G37*
%LPD*%
D10*
X301969Y177165D02*
G03*
X301969Y177165I-5906J0D01*
G01*
X278346Y19685D02*
G03*
X278346Y19685I-5906J0D01*
G01*
D16*
X98463Y88894D02*
D03*
X91376D02*
D03*
X98463Y97094D02*
D03*
X91376D02*
D03*
X105276Y151494D02*
D03*
X112363D02*
D03*
X63363Y173894D02*
D03*
X56276D02*
D03*
D17*
X30120Y171140D02*
D03*
Y164447D02*
D03*
D21*
X124966Y163694D02*
D03*
X118273D02*
D03*
X137566D02*
D03*
X130873D02*
D03*
D31*
X38220Y163950D02*
D03*
Y171037D02*
D03*
X145420Y132737D02*
D03*
Y125650D02*
D03*
D32*
X296063Y177165D02*
D03*
X272441Y19685D02*
D03*
D33*
X202020Y78394D02*
X209520Y85894D01*
X163520Y78394D02*
X202020D01*
X148020Y93894D02*
X163520Y78394D01*
X209520Y85894D02*
X237020D01*
X248420Y74494D01*
X291820D01*
X148020Y114894D02*
Y117728D01*
X145669Y120079D02*
X148020Y117728D01*
X126612Y120079D02*
X145669D01*
X126497Y120194D02*
X126612Y120079D01*
X124343Y120194D02*
X126497D01*
X121275Y117126D02*
X124343Y120194D01*
X115157Y117126D02*
X121275D01*
X38320Y120194D02*
X119964D01*
X120079Y120079D01*
X130420Y173494D02*
X130873Y173040D01*
Y163694D02*
Y173040D01*
X64520Y68394D02*
X64620Y68494D01*
X53898Y68394D02*
X64520D01*
X105276Y147650D02*
Y151494D01*
X104120Y146494D02*
X105276Y147650D01*
X104120Y145794D02*
Y146494D01*
X108320Y123894D02*
X108420Y123794D01*
X49920Y123894D02*
X108320D01*
X19498Y157935D02*
X26010Y164447D01*
X30120D01*
X30617Y163950D01*
X38220D01*
X140676Y132737D02*
X145420D01*
X139120Y134294D02*
X140676Y132737D01*
X169820Y108994D02*
X172220Y106594D01*
X100120Y108994D02*
X169820D01*
X177220Y103994D02*
X177420Y104194D01*
X102220Y103994D02*
X177220D01*
X101320Y104894D02*
X102220Y103994D01*
X95720Y104694D02*
X98463Y101950D01*
Y97094D02*
Y101950D01*
X25860Y108294D02*
X25960Y108394D01*
X36520D01*
X35920Y117794D02*
X36520Y118394D01*
X25860Y117794D02*
X35920D01*
X26060Y128394D02*
X36520D01*
X25960Y138294D02*
X26060Y138394D01*
X36520D01*
X89020Y80994D02*
X147020D01*
X87779Y79754D02*
X89020Y80994D01*
X87779Y75894D02*
Y79754D01*
X77520Y68394D02*
X139820D01*
X142620Y83394D02*
X142820Y83594D01*
X77520Y83394D02*
X142620D01*
X91376Y88894D02*
Y97094D01*
X98463Y88894D02*
Y97094D01*
X91376D02*
X91720Y97437D01*
Y107494D01*
X118273Y163694D02*
Y171347D01*
X120420Y173494D01*
X36520Y138394D02*
X43720Y131194D01*
X112820D01*
X109120Y128394D02*
X109220Y128494D01*
X36520Y128394D02*
X109120D01*
X36520Y118394D02*
X38320Y120194D01*
X36520Y108394D02*
X81720D01*
X113720Y114394D02*
X122920D01*
X81720Y108394D02*
X90620Y117294D01*
X110820D01*
X113720Y114394D01*
X94820Y114594D02*
X107720D01*
X82420Y102194D02*
X94820Y114594D01*
X82420Y90294D02*
Y102194D01*
D34*
X63363Y157250D02*
X63820Y156794D01*
X64720Y180094D02*
X68020D01*
X63363Y178737D02*
X64720Y180094D01*
X63363Y173894D02*
Y178737D01*
Y157250D02*
Y173894D01*
X20385Y170359D02*
X30120D01*
X13420Y153094D02*
X21520Y144994D01*
X13420Y153094D02*
Y163394D01*
X20385Y170359D01*
X30120D02*
Y171140D01*
X18380Y104534D02*
Y104553D01*
Y108294D01*
X10720Y96894D02*
X18380Y104553D01*
X10720Y69454D02*
Y96894D01*
Y69454D02*
X16780Y63394D01*
X26020Y96894D02*
X44620D01*
X18380Y104534D02*
X26020Y96894D01*
X44620D02*
X50120Y91394D01*
X54067D01*
X279377Y99394D02*
Y133736D01*
X277420Y135694D02*
X279377Y133736D01*
X236320Y158161D02*
Y162094D01*
X236170Y158011D02*
X236320Y158161D01*
X236170Y134672D02*
Y158011D01*
Y134672D02*
X248620Y122222D01*
Y115377D02*
Y122222D01*
Y112194D02*
Y115377D01*
Y112194D02*
X261420Y99394D01*
X279377D01*
X291820Y86951D01*
X299520Y42788D02*
Y79251D01*
X291720Y34988D02*
X299520Y42788D01*
X291820Y86951D02*
X299520Y79251D01*
X266525Y34988D02*
X291720D01*
X254367Y47146D02*
X266525Y34988D01*
X247420Y47146D02*
X254367D01*
X77520Y78394D02*
X80020Y75894D01*
X77520Y73394D02*
X80020Y75894D01*
X87779D01*
X53898Y83394D02*
X54067Y83563D01*
Y91394D01*
X39520Y67394D02*
X45520Y73394D01*
X53898D01*
X39520Y87394D02*
X48520Y78394D01*
X53898D01*
X24260Y63394D02*
X29520D01*
X33520Y67394D01*
X39520D01*
X24260Y63394D02*
X24456Y63590D01*
Y72653D01*
X24260Y80330D02*
X24456Y80133D01*
X24260Y80330D02*
Y89394D01*
X29520D01*
X31520Y87394D01*
X39520D01*
X243020Y157094D02*
X297620D01*
X239120Y153194D02*
X243020Y157094D01*
X239120Y135894D02*
Y153194D01*
X238620Y54579D02*
X246052Y47146D01*
X247420D01*
X244967Y41241D02*
X247420D01*
X238620Y34894D02*
X244967Y41241D01*
D35*
X158820Y156794D02*
Y163694D01*
Y136194D02*
Y156794D01*
X140420Y173494D02*
X150320D01*
X158820Y164994D01*
Y136194D02*
X182120Y112894D01*
Y92994D02*
Y112894D01*
Y92994D02*
X192220Y82894D01*
X68835Y27394D02*
X68920Y27309D01*
D36*
X235620Y76894D02*
X238620Y73894D01*
Y54579D02*
Y73894D01*
D37*
X49720Y156794D02*
X63820D01*
X37920Y144994D02*
X49720Y156794D01*
X124720D02*
X158820D01*
X105120D02*
X124720D01*
X84920D02*
X105120D01*
X63820D02*
X84920D01*
X21520Y144994D02*
X37920D01*
X20120Y46552D02*
X20961Y47394D01*
X39520D01*
X38078Y28835D02*
X39520Y27394D01*
X20120Y28835D02*
X38078D01*
D38*
X124720Y156794D02*
X124966Y157040D01*
Y163694D01*
X105120Y156794D02*
X105276Y156637D01*
Y151494D02*
Y156637D01*
D39*
X137566Y163694D02*
X140420Y166547D01*
Y173494D01*
X155363Y132737D02*
X158820Y136194D01*
X145420Y132737D02*
X155363D01*
X100020Y138394D02*
X150420D01*
X0Y0D02*
X314961D01*
Y200787D01*
X0D02*
X314961D01*
X0Y0D02*
Y200787D01*
D40*
X18380Y117794D02*
Y141853D01*
Y108294D02*
Y117794D01*
Y141853D02*
X21520Y144994D01*
D41*
X20120Y36906D02*
Y38481D01*
X19332Y37694D02*
X20907D01*
D42*
X36520Y108394D02*
D03*
Y118394D02*
D03*
Y128394D02*
D03*
Y138394D02*
D03*
X6520Y108394D02*
D03*
Y118394D02*
D03*
Y128394D02*
D03*
X148490Y48692D02*
D03*
X130420Y173494D02*
D03*
X120420D02*
D03*
X110420D02*
D03*
X100420D02*
D03*
X291820Y64494D02*
D03*
X291720Y34988D02*
D03*
Y46799D02*
D03*
D43*
X6520Y138394D02*
D03*
X140420Y173494D02*
D03*
D44*
X118962Y48594D02*
D03*
D45*
X83020Y144594D02*
D03*
Y138994D02*
D03*
D46*
X78232Y114794D02*
D03*
X59020D02*
D03*
X193420Y153894D02*
D03*
X212632D02*
D03*
X192220Y82894D02*
D03*
D47*
X68920Y27309D02*
D03*
Y46994D02*
D03*
X291820Y86951D02*
D03*
Y106636D02*
D03*
X238620Y54579D02*
D03*
Y34894D02*
D03*
X19498Y175652D02*
D03*
Y157935D02*
D03*
D48*
X248620Y150810D02*
D03*
Y115377D02*
D03*
X262520Y115677D02*
D03*
Y151110D02*
D03*
D49*
X291820Y74494D02*
D03*
D50*
X39520Y87394D02*
D03*
Y67394D02*
D03*
Y47394D02*
D03*
D51*
Y27394D02*
D03*
D52*
X29341Y153014D02*
D03*
Y180573D02*
D03*
D53*
X148020Y93894D02*
D03*
Y114894D02*
D03*
X120079Y120079D02*
D03*
X115157Y117126D02*
D03*
X170720Y114294D02*
D03*
X158720Y126194D02*
D03*
X89120Y174894D02*
D03*
X94120Y143994D02*
D03*
X134120Y87494D02*
D03*
X64620Y68494D02*
D03*
X74820Y170894D02*
D03*
X228720Y127194D02*
D03*
X125420Y117594D02*
D03*
X124220Y130294D02*
D03*
X104120Y145794D02*
D03*
X108820Y145894D02*
D03*
X84920Y156794D02*
D03*
X48120Y154994D02*
D03*
X158920Y163694D02*
D03*
X277420Y135694D02*
D03*
X236320Y162094D02*
D03*
X139120Y134294D02*
D03*
X150420Y138394D02*
D03*
X177420Y104194D02*
D03*
X101320Y104894D02*
D03*
X100120Y108994D02*
D03*
X95720Y104694D02*
D03*
X172220Y106594D02*
D03*
X100020Y138394D02*
D03*
X49920Y123894D02*
D03*
X147020Y80994D02*
D03*
X139820Y68394D02*
D03*
X142820Y83594D02*
D03*
X91720Y107494D02*
D03*
X68020Y180094D02*
D03*
X108420Y123794D02*
D03*
X112820Y131194D02*
D03*
X109220Y128494D02*
D03*
X122920Y114394D02*
D03*
X297620Y157094D02*
D03*
X239120Y135894D02*
D03*
X107720Y114594D02*
D03*
X82420Y90294D02*
D03*
X187008Y125984D02*
D03*
X196850D02*
D03*
X206693D02*
D03*
X216535D02*
D03*
X196850Y116142D02*
D03*
X187008D02*
D03*
Y106299D02*
D03*
X196850D02*
D03*
X206693D02*
D03*
Y116142D02*
D03*
X226378D02*
D03*
X167323Y185039D02*
D03*
X187008D02*
D03*
X206693D02*
D03*
X226378D02*
D03*
X246063D02*
D03*
X305118D02*
D03*
X265748D02*
D03*
X285433D02*
D03*
X147638D02*
D03*
X127953D02*
D03*
X108268D02*
D03*
X88583D02*
D03*
X49213D02*
D03*
X19685D02*
D03*
X9843D02*
D03*
Y165354D02*
D03*
Y175197D02*
D03*
Y155512D02*
D03*
X7874Y62992D02*
D03*
Y43307D02*
D03*
Y27559D02*
D03*
Y15748D02*
D03*
X31496D02*
D03*
X55118D02*
D03*
X78740D02*
D03*
X122047D02*
D03*
X145669D02*
D03*
X173228D02*
D03*
X216535D02*
D03*
X244094D02*
D03*
X257480D02*
D03*
X283465D02*
D03*
X303150D02*
D03*
Y55118D02*
D03*
Y82677D02*
D03*
Y110236D02*
D03*
Y133858D02*
D03*
Y161417D02*
D03*
X141732Y55118D02*
D03*
X153543Y59055D02*
D03*
X125984Y39370D02*
D03*
X59055D02*
D03*
X82677D02*
D03*
X66929Y78740D02*
D03*
X70866Y90551D02*
D03*
X118110Y125984D02*
D03*
Y129921D02*
D03*
X133858Y145669D02*
D03*
X51181Y141732D02*
D03*
X153543Y82677D02*
D03*
X173228Y86614D02*
D03*
X188976Y74803D02*
D03*
X157480Y98425D02*
D03*
X114173D02*
D03*
X122047Y149606D02*
D03*
X110236Y165354D02*
D03*
X86614Y133858D02*
D03*
X49213Y114173D02*
D03*
X57087Y163386D02*
D03*
X98425Y15748D02*
D03*
D54*
X235620Y76894D02*
D03*
X186420Y26894D02*
D03*
X99720Y37394D02*
D03*
D55*
X25860Y108294D02*
D03*
X18380D02*
D03*
X25860Y117794D02*
D03*
X18380D02*
D03*
X26060Y128394D02*
D03*
X18579D02*
D03*
X25960Y138294D02*
D03*
X18480D02*
D03*
X95260Y75894D02*
D03*
X87779D02*
D03*
X24260Y89394D02*
D03*
X16780D02*
D03*
X24260Y63394D02*
D03*
X16780D02*
D03*
D56*
X54067Y91394D02*
D03*
X59973D02*
D03*
D57*
X24456Y80133D02*
D03*
Y72653D02*
D03*
X15795Y76393D02*
D03*
D58*
X53898Y78394D02*
D03*
Y73394D02*
D03*
X77520Y83394D02*
D03*
Y73394D02*
D03*
Y68394D02*
D03*
X53898D02*
D03*
D59*
X77520Y78394D02*
D03*
X53898Y83394D02*
D03*
D60*
X247420Y41241D02*
D03*
Y47146D02*
D03*
D61*
X20120Y28835D02*
D03*
Y46552D02*
D03*
M02*
