%FSLAX25Y25*%
%MOIN*%
G70*
G01*
G75*
G04 Layer_Color=8388736*
%ADD10C,0.03937*%
%ADD11R,0.05315X0.06102*%
%ADD12O,0.07480X0.02362*%
%ADD13O,0.08268X0.01181*%
%ADD14O,0.01181X0.08268*%
%ADD15R,0.04528X0.10630*%
%ADD16R,0.04528X0.05709*%
%ADD17R,0.05118X0.03347*%
%ADD18O,0.23622X0.09843*%
G04:AMPARAMS|DCode=19|XSize=98.43mil|YSize=236.22mil|CornerRadius=0mil|HoleSize=0mil|Usage=FLASHONLY|Rotation=90.000|XOffset=0mil|YOffset=0mil|HoleType=Round|Shape=Octagon|*
%AMOCTAGOND19*
4,1,8,-0.11811,-0.02461,-0.11811,0.02461,-0.09350,0.04921,0.09350,0.04921,0.11811,0.02461,0.11811,-0.02461,0.09350,-0.04921,-0.09350,-0.04921,-0.11811,-0.02461,0.0*
%
%ADD19OCTAGOND19*%

%ADD20R,0.05118X0.05906*%
%ADD21R,0.03347X0.05118*%
%ADD22R,0.09213X0.08600*%
%ADD23R,0.02362X0.04528*%
%ADD24R,0.02362X0.07874*%
%ADD25O,0.02362X0.07874*%
%ADD26R,0.18898X0.20079*%
%ADD27R,0.03937X0.11811*%
%ADD28R,0.07874X0.01575*%
%ADD29R,0.01575X0.03937*%
%ADD30R,0.04724X0.03937*%
%ADD31R,0.05709X0.04528*%
%ADD32C,0.03937*%
%ADD33C,0.00800*%
%ADD34C,0.01500*%
%ADD35C,0.05000*%
%ADD36C,0.02000*%
%ADD37C,0.03000*%
%ADD38C,0.01200*%
%ADD39C,0.01000*%
%ADD40C,0.04000*%
%ADD41C,0.00394*%
%ADD42C,0.05906*%
%ADD43R,0.05906X0.05906*%
%ADD44C,0.04331*%
%ADD45O,0.05000X0.04000*%
%ADD46C,0.05000*%
%ADD47C,0.07087*%
%ADD48C,0.05315*%
%ADD49C,0.06299*%
%ADD50C,0.10630*%
%ADD51R,0.10630X0.10630*%
%ADD52C,0.08661*%
%ADD53C,0.02400*%
%ADD54C,0.03600*%
%ADD55R,0.03937X0.04724*%
%ADD56R,0.04331X0.05512*%
%ADD57R,0.04724X0.03150*%
%ADD58O,0.07874X0.02400*%
%ADD59O,0.07874X0.02402*%
%ADD60R,0.05512X0.04331*%
%ADD61R,0.09055X0.09055*%
%ADD62C,0.02362*%
%ADD63C,0.00984*%
%ADD64C,0.00787*%
%ADD65C,0.01575*%
%ADD66C,0.00700*%
%ADD67R,0.08000X0.01075*%
%ADD68R,0.07284X0.03866*%
%ADD69C,0.05906*%
%ADD70R,0.06115X0.06902*%
%ADD71O,0.08280X0.03162*%
%ADD72O,0.09068X0.01981*%
%ADD73O,0.01981X0.09068*%
%ADD74R,0.05328X0.11430*%
%ADD75R,0.05328X0.06509*%
%ADD76R,0.05918X0.04147*%
%ADD77O,0.24422X0.10642*%
G04:AMPARAMS|DCode=78|XSize=106.42mil|YSize=244.22mil|CornerRadius=0mil|HoleSize=0mil|Usage=FLASHONLY|Rotation=90.000|XOffset=0mil|YOffset=0mil|HoleType=Round|Shape=Octagon|*
%AMOCTAGOND78*
4,1,8,-0.12211,-0.02661,-0.12211,0.02661,-0.09550,0.05321,0.09550,0.05321,0.12211,0.02661,0.12211,-0.02661,0.09550,-0.05321,-0.09550,-0.05321,-0.12211,-0.02661,0.0*
%
%ADD78OCTAGOND78*%

%ADD79R,0.05918X0.06706*%
%ADD80R,0.04147X0.05918*%
%ADD81R,0.10013X0.09400*%
%ADD82R,0.03162X0.05328*%
%ADD83R,0.03162X0.08674*%
%ADD84O,0.03162X0.08674*%
%ADD85R,0.19698X0.20879*%
%ADD86R,0.04737X0.12611*%
%ADD87R,0.08674X0.02375*%
%ADD88R,0.02375X0.04737*%
%ADD89R,0.05524X0.04737*%
%ADD90R,0.06509X0.05328*%
%ADD91C,0.04737*%
%ADD92C,0.06706*%
%ADD93R,0.06706X0.06706*%
%ADD94C,0.05131*%
%ADD95O,0.05800X0.04800*%
%ADD96C,0.05800*%
%ADD97C,0.07887*%
%ADD98C,0.06115*%
%ADD99C,0.07099*%
%ADD100C,0.11430*%
%ADD101R,0.11430X0.11430*%
%ADD102C,0.09461*%
%ADD103C,0.03200*%
D39*
X0Y0D02*
X314961D01*
Y200787D01*
X0D02*
X314961D01*
X0Y0D02*
Y200787D01*
D41*
X20120Y36906D02*
Y38481D01*
X19332Y37694D02*
X20907D01*
D69*
X297047Y177165D02*
G03*
X297047Y177165I-984J0D01*
G01*
X273425Y19685D02*
G03*
X273425Y19685I-984J0D01*
G01*
D70*
X76857Y130794D02*
D03*
X68983D02*
D03*
X69183Y152594D02*
D03*
X77057D02*
D03*
X57583Y98694D02*
D03*
X65457D02*
D03*
X83657Y98594D02*
D03*
X75783D02*
D03*
X204783Y170594D02*
D03*
X212657D02*
D03*
X185483D02*
D03*
X193357D02*
D03*
D71*
X68172Y160994D02*
D03*
Y165994D02*
D03*
Y170994D02*
D03*
Y175994D02*
D03*
X49668Y160994D02*
D03*
Y165994D02*
D03*
Y170994D02*
D03*
Y175994D02*
D03*
D72*
X99978Y134121D02*
D03*
Y132152D02*
D03*
Y130183D02*
D03*
Y128215D02*
D03*
Y126247D02*
D03*
Y124278D02*
D03*
Y122309D02*
D03*
Y120341D02*
D03*
Y118372D02*
D03*
Y116404D02*
D03*
Y114435D02*
D03*
Y112467D02*
D03*
X132261D02*
D03*
Y114435D02*
D03*
Y116404D02*
D03*
Y118372D02*
D03*
Y120341D02*
D03*
Y122309D02*
D03*
Y124278D02*
D03*
Y126247D02*
D03*
Y128215D02*
D03*
Y130183D02*
D03*
Y132152D02*
D03*
Y134121D02*
D03*
D73*
X105293Y107152D02*
D03*
X107261D02*
D03*
X109230D02*
D03*
X111198D02*
D03*
X113167D02*
D03*
X115135D02*
D03*
X117104D02*
D03*
X119072D02*
D03*
X121041D02*
D03*
X123010D02*
D03*
X124978D02*
D03*
X126946D02*
D03*
Y139435D02*
D03*
X124978D02*
D03*
X123010D02*
D03*
X121041D02*
D03*
X119072D02*
D03*
X117104D02*
D03*
X115135D02*
D03*
X113167D02*
D03*
X111198D02*
D03*
X109230D02*
D03*
X107261D02*
D03*
X105293D02*
D03*
D74*
X156725Y153994D02*
D03*
X144914D02*
D03*
X104025Y93494D02*
D03*
X92214D02*
D03*
D75*
X127076Y94494D02*
D03*
X134163D02*
D03*
X228263Y85994D02*
D03*
X221176D02*
D03*
X228263Y77594D02*
D03*
X221176D02*
D03*
D76*
X104120Y77947D02*
D03*
Y84640D02*
D03*
X92420Y77547D02*
D03*
Y84240D02*
D03*
X81220Y176940D02*
D03*
Y170247D02*
D03*
X272820Y71340D02*
D03*
Y64647D02*
D03*
X158220Y114747D02*
D03*
Y121440D02*
D03*
X276420Y39347D02*
D03*
Y46040D02*
D03*
D77*
X99868Y48594D02*
D03*
D78*
X167584D02*
D03*
D79*
X169720Y60394D02*
D03*
Y74394D02*
D03*
X179320Y60494D02*
D03*
Y74494D02*
D03*
D80*
X53073Y153694D02*
D03*
X59766D02*
D03*
X112273Y85794D02*
D03*
X118966D02*
D03*
X118966Y92794D02*
D03*
X112273D02*
D03*
X90773Y156494D02*
D03*
X97466D02*
D03*
X97466Y149894D02*
D03*
X90773D02*
D03*
D81*
X61020Y141694D02*
D03*
D82*
X277320Y142265D02*
D03*
X273580Y151123D02*
D03*
X281060D02*
D03*
X293920Y142065D02*
D03*
X290179Y150923D02*
D03*
X297660D02*
D03*
X258620Y90265D02*
D03*
X254879Y99123D02*
D03*
X262360D02*
D03*
D83*
X233720Y136094D02*
D03*
D84*
X228602D02*
D03*
X223483D02*
D03*
X218365D02*
D03*
X213247D02*
D03*
X208129D02*
D03*
X203011D02*
D03*
X197893D02*
D03*
X192775D02*
D03*
X187657D02*
D03*
X182539D02*
D03*
X177420D02*
D03*
X172302D02*
D03*
X167184D02*
D03*
X233720Y96724D02*
D03*
X228602D02*
D03*
X223483D02*
D03*
X218365D02*
D03*
X213247D02*
D03*
X208129D02*
D03*
X203011D02*
D03*
X197893D02*
D03*
X192775D02*
D03*
X187657D02*
D03*
X182539D02*
D03*
X177420D02*
D03*
X172302D02*
D03*
X167184D02*
D03*
D85*
X202720Y52377D02*
D03*
D86*
X193724Y26983D02*
D03*
X211716D02*
D03*
D87*
X202720Y63204D02*
D03*
D88*
X192483Y60448D02*
D03*
X212956D02*
D03*
D89*
X233720Y148354D02*
D03*
Y155834D02*
D03*
X272820Y167634D02*
D03*
Y160153D02*
D03*
X281020Y167634D02*
D03*
Y160153D02*
D03*
X262620Y160254D02*
D03*
Y167734D02*
D03*
X271320Y99154D02*
D03*
Y106634D02*
D03*
X245920D02*
D03*
Y99154D02*
D03*
X173420Y157934D02*
D03*
Y150453D02*
D03*
D90*
X267720Y45937D02*
D03*
Y38850D02*
D03*
D91*
X296063Y177165D02*
D03*
X272441Y19685D02*
D03*
D92*
X36520Y108394D02*
D03*
Y118394D02*
D03*
Y128394D02*
D03*
Y138394D02*
D03*
X6520Y108394D02*
D03*
Y118394D02*
D03*
Y128394D02*
D03*
X148490Y48692D02*
D03*
X130420Y173494D02*
D03*
X120420D02*
D03*
X110420D02*
D03*
X100420D02*
D03*
X291820Y64494D02*
D03*
X291720Y34988D02*
D03*
Y46799D02*
D03*
D93*
X6520Y138394D02*
D03*
X140420Y173494D02*
D03*
D94*
X118962Y48594D02*
D03*
D95*
X83020Y144594D02*
D03*
Y138994D02*
D03*
D96*
X78232Y114794D02*
D03*
X59020D02*
D03*
X193420Y153894D02*
D03*
X212632D02*
D03*
D97*
X68920Y27309D02*
D03*
Y46994D02*
D03*
X291820Y86951D02*
D03*
Y106636D02*
D03*
X238620Y54579D02*
D03*
Y34894D02*
D03*
X19498Y175652D02*
D03*
Y157935D02*
D03*
D98*
X248620Y150810D02*
D03*
Y115377D02*
D03*
X262520Y115677D02*
D03*
Y151110D02*
D03*
D99*
X291820Y74494D02*
D03*
D100*
X39520Y87394D02*
D03*
Y67394D02*
D03*
Y47394D02*
D03*
D101*
Y27394D02*
D03*
D102*
X29341Y153014D02*
D03*
Y180573D02*
D03*
D103*
X148020Y93894D02*
D03*
Y114894D02*
D03*
X115157Y117126D02*
D03*
X89120Y174894D02*
D03*
X94120Y143994D02*
D03*
M02*
